<?xml version="1.0" encoding="UTF-8"?>
<svg id="Capa_2" data-name="Capa 2" xmlns="http://www.w3.org/2000/svg" xmlns:xlink="http://www.w3.org/1999/xlink" viewBox="0 0 786.73 530.43">
  <defs>
    <style>
      .cls-1 {
        stroke: #4f797a;
      }

      .cls-1, .cls-2, .cls-3, .cls-4, .cls-5, .cls-6, .cls-7, .cls-8, .cls-9, .cls-10, .cls-11, .cls-12, .cls-13, .cls-14, .cls-15, .cls-16, .cls-17, .cls-18, .cls-19, .cls-20, .cls-21 {
        fill: none;
      }

      .cls-1, .cls-4, .cls-5, .cls-6, .cls-8, .cls-9, .cls-10, .cls-14, .cls-16, .cls-18, .cls-19, .cls-21 {
        stroke-miterlimit: 10;
      }

      .cls-22 {
        fill: #a3585b;
      }

      .cls-23 {
        fill: #f8d4bc;
      }

      .cls-24 {
        fill: #534c44;
      }

      .cls-2 {
        stroke-width: .75px;
      }

      .cls-2, .cls-3, .cls-11, .cls-12, .cls-13, .cls-15, .cls-17, .cls-20 {
        stroke-linecap: round;
        stroke-linejoin: round;
      }

      .cls-2, .cls-11, .cls-13 {
        stroke: #000;
      }

      .cls-25 {
        fill: #ffc2b6;
      }

      .cls-3 {
        stroke: #3a3a09;
      }

      .cls-26 {
        fill: #d5b6a2;
      }

      .cls-4 {
        stroke: #a09080;
      }

      .cls-27 {
        fill: #838733;
      }

      .cls-28 {
        fill: url(#Degradado_sin_nombre_125-2);
      }

      .cls-28, .cls-29 {
        opacity: .35;
      }

      .cls-30 {
        fill: #dbd4cb;
      }

      .cls-5 {
        stroke: #5b5e0d;
      }

      .cls-31 {
        fill: #774040;
      }

      .cls-32 {
        fill: #fff;
      }

      .cls-33 {
        fill: #5b5e0d;
      }

      .cls-34 {
        fill: #fddabc;
      }

      .cls-35 {
        fill: #5b554f;
      }

      .cls-36 {
        fill: #74aaae;
      }

      .cls-6 {
        stroke: #937b6f;
      }

      .cls-8 {
        stroke: #96918c;
      }

      .cls-37 {
        fill: #755252;
      }

      .cls-38 {
        fill: #6f3a2a;
      }

      .cls-29 {
        fill: url(#Degradado_sin_nombre_125);
      }

      .cls-39 {
        fill: #d67b7b;
      }

      .cls-40 {
        fill: #d7a584;
      }

      .cls-41 {
        fill: #af8066;
      }

      .cls-42 {
        fill: #51331d;
      }

      .cls-9 {
        stroke: #496c6d;
      }

      .cls-43 {
        clip-path: url(#clippath-1);
      }

      .cls-10 {
        stroke: #442d20;
      }

      .cls-12 {
        stroke: #895940;
      }

      .cls-44 {
        fill: #6ea8aa;
      }

      .cls-45 {
        fill: #705a4b;
      }

      .cls-46 {
        fill: #bc2034;
      }

      .cls-13 {
        stroke-width: 4px;
      }

      .cls-47 {
        fill: #4f4a46;
      }

      .cls-48 {
        fill: #272928;
      }

      .cls-49 {
        fill: #e5dac8;
      }

      .cls-14 {
        stroke: #84564d;
      }

      .cls-50 {
        fill: #d6bca5;
      }

      .cls-15 {
        stroke: #dbd4cb;
        stroke-width: 2px;
      }

      .cls-51 {
        fill: #acc353;
      }

      .cls-52 {
        fill: #a58a7c;
      }

      .cls-16 {
        stroke: #ff8f80;
      }

      .cls-17 {
        stroke: #565656;
      }

      .cls-18 {
        stroke: #8e3a2f;
      }

      .cls-53 {
        fill: #e8d0b6;
      }

      .cls-54 {
        fill: #754d3b;
      }

      .cls-55 {
        fill: #cf906d;
      }

      .cls-56 {
        fill: #a18168;
      }

      .cls-57 {
        fill: #c05543;
      }

      .cls-58 {
        fill: #ddabb0;
      }

      .cls-59 {
        fill: #fffffd;
      }

      .cls-60 {
        fill: #8a151e;
      }

      .cls-61 {
        fill: #293144;
      }

      .cls-62 {
        fill: #005150;
      }

      .cls-63 {
        fill: #845f4d;
      }

      .cls-64 {
        fill: #ffebde;
      }

      .cls-65 {
        fill: #7a5640;
      }

      .cls-66 {
        fill: #bb7c6d;
      }

      .cls-19 {
        stroke: #687530;
      }

      .cls-20 {
        stroke: #634739;
      }

      .cls-67 {
        clip-path: url(#clippath);
      }

      .cls-68 {
        fill: #979a9b;
      }

      .cls-69 {
        fill: #67605a;
      }

      .cls-21 {
        stroke: #003330;
      }
    </style>
    <radialGradient id="Degradado_sin_nombre_125" data-name="Degradado sin nombre 125" cx="465.93" cy="180.63" fx="465.93" fy="180.63" r="9.73" gradientTransform="translate(-103.92 43.86) scale(1.22 .75)" gradientUnits="userSpaceOnUse">
      <stop offset="0" stop-color="#ff557a" stop-opacity=".65"/>
      <stop offset=".16" stop-color="#ff577b" stop-opacity=".63"/>
      <stop offset=".31" stop-color="#ff5f7f" stop-opacity=".59"/>
      <stop offset=".47" stop-color="#ff6c86" stop-opacity=".51"/>
      <stop offset=".62" stop-color="#ff7e90" stop-opacity=".4"/>
      <stop offset=".77" stop-color="#ff959d" stop-opacity=".26"/>
      <stop offset=".92" stop-color="#ffb1ad" stop-opacity=".1"/>
      <stop offset="1" stop-color="#ffc2b6" stop-opacity="0"/>
    </radialGradient>
    <radialGradient id="Degradado_sin_nombre_125-2" data-name="Degradado sin nombre 125" cx="454.81" cy="178.5" fx="454.81" fy="178.5" r="9.73" gradientTransform="translate(570.3 737.6) rotate(-90) scale(1.22 -.75)" xlink:href="#Degradado_sin_nombre_125"/>
    <clipPath id="clippath">
      <path class="cls-7" d="M444.87,173.78s-9.23,3.45-14.12-1.16c0,0,6.34-5.95,14.12,1.16Z"/>
    </clipPath>
    <clipPath id="clippath-1">
      <path class="cls-7" d="M456.12,174.18s9.32,3.18,14.08-1.57c0,0-6.51-5.76-14.08,1.57Z"/>
    </clipPath>
  </defs>
  <g id="VET">
    <g>
      <path id="FONDO" class="cls-23" d="M159.76,0h482.39c63.37,0,114.82,51.45,114.82,114.82v364.52H44.94V114.82C44.94,51.45,96.39,0,159.76,0Z"/>
      <path class="cls-26" d="M44.94,383.99h711.57v89.64c0,31.08-25.23,56.31-56.31,56.31H101.25c-31.08,0-56.31-25.23-56.31-56.31v-89.64h0Z"/>
      <g id="BIBLIOTECA">
        <g>
          <path class="cls-27" d="M364.61,50.66s-23.45,14.49-21.72,28.79c0,0,22.32-11.18,21.72-28.79Z"/>
          <path class="cls-5" d="M364.61,50.66s-23.45,14.49-21.72,28.79c0,0,22.32-11.18,21.72-28.79Z"/>
        </g>
        <g>
          <path class="cls-27" d="M342.89,77.25c-.2,1.32-13.54-4.02-15.77-27.24l4.47,1.78s-1.62-2.76-4.88-3.65c0,0-2.79-10.32-3.58-16.76,0,0,5.22,3.81,8.59,7.48l.64,7.54s1.32-2.57,1.09-5.44c0,0,11.65,21.53,9.43,36.3Z"/>
          <path class="cls-5" d="M342.89,77.25c-.2,1.32-13.54-4.02-15.77-27.24l4.47,1.78s-1.62-2.76-4.88-3.65c0,0-2.79-10.32-3.58-16.76,0,0,5.22,3.81,8.59,7.48l.64,7.54s1.32-2.57,1.09-5.44c0,0,11.65,21.53,9.43,36.3Z"/>
        </g>
        <g>
          <path class="cls-27" d="M344.3,77.11c-.84,1.03-9.59-10.37.36-31.47l2.94,3.81s.02-3.2-2.33-5.63c0,0,2.87-10.3,5.49-16.24,0,0,2.54,5.94,3.56,10.82l-3.3,6.81s2.45-1.54,3.72-4.12c0,0-.99,24.46-10.44,36.02Z"/>
          <path class="cls-5" d="M344.3,77.11c-.84,1.03-9.59-10.37.36-31.47l2.94,3.81s.02-3.2-2.33-5.63c0,0,2.87-10.3,5.49-16.24,0,0,2.54,5.94,3.56,10.82l-3.3,6.81s2.45-1.54,3.72-4.12c0,0-.99,24.46-10.44,36.02Z"/>
        </g>
        <g>
          <path class="cls-27" d="M313.47,54.41s12.79,24.42,27.18,23.71c0,0-9.56-23.06-27.18-23.71Z"/>
          <path class="cls-5" d="M313.47,54.41s12.79,24.42,27.18,23.71c0,0-9.56-23.06-27.18-23.71Z"/>
        </g>
        <g>
          <path class="cls-27" d="M388.85,85.54c.45,1.82.25,4.51-1.57,8.46h-7.38s-1.01-6.1,1.2-9.63c1.99-3.17,6.86-2.47,7.75,1.17Z"/>
          <path class="cls-5" d="M388.85,85.54c.45,1.82.25,4.51-1.57,8.46h-7.38s-1.01-6.1,1.2-9.63c1.99-3.17,6.86-2.47,7.75,1.17Z"/>
          <path class="cls-27" d="M368.91,81.9c-.64,2.61-.35,6.46,2.24,12.1h10.56s1.45-8.72-1.72-13.77c-2.85-4.54-9.81-3.53-11.08,1.67Z"/>
          <path class="cls-5" d="M368.91,81.9c-.64,2.61-.35,6.46,2.24,12.1h10.56s1.45-8.72-1.72-13.77c-2.85-4.54-9.81-3.53-11.08,1.67Z"/>
          <g>
            <path class="cls-33" d="M377.33,79.45c-.09,1.11-.63,1.98-1.59,2.54.09-1.11.63-1.97,1.59-2.54h0Z"/>
            <path class="cls-33" d="M375.47,80.05c1.05.04,1.86.54,2.37,1.46-1.05-.04-1.86-.54-2.37-1.46h0Z"/>
          </g>
          <g>
            <path class="cls-33" d="M377.63,85.39c1.1-.17,2.07.16,2.84.97-1.1.17-2.07-.16-2.84-.97h0Z"/>
            <path class="cls-33" d="M378.64,87.06c-.2-1.03.1-1.93.88-2.64.2,1.03-.1,1.93-.88,2.64h0Z"/>
          </g>
          <g>
            <path class="cls-33" d="M384.51,89.21c1.09.22,1.89.85,2.34,1.87-1.09-.22-1.89-.86-2.34-1.87h0Z"/>
            <path class="cls-33" d="M384.89,91.13c.16-1.04.75-1.78,1.72-2.18-.16,1.04-.75,1.78-1.72,2.18h0Z"/>
          </g>
          <g>
            <path class="cls-33" d="M372.35,86.23c-.09,1.11-.63,1.98-1.59,2.54.09-1.11.63-1.97,1.59-2.54h0Z"/>
            <path class="cls-33" d="M370.48,86.83c1.05.04,1.86.54,2.37,1.46-1.05-.04-1.86-.54-2.37-1.46h0Z"/>
          </g>
          <g>
            <path class="cls-33" d="M376.93,90.1c-.85.72-1.85.95-2.92.66.85-.72,1.85-.94,2.92-.66h0Z"/>
            <path class="cls-33" d="M375.19,89.2c.71.78.93,1.7.63,2.71-.71-.77-.92-1.7-.63-2.71h0Z"/>
          </g>
          <g>
            <path class="cls-33" d="M380.14,88.85c-.18.7-.61,1.19-1.3,1.44.17-.7.62-1.19,1.3-1.44h0Z"/>
            <path class="cls-33" d="M378.96,88.95c.65.23,1.05.69,1.18,1.37-.65-.23-1.05-.7-1.18-1.37h0Z"/>
          </g>
          <g>
            <path class="cls-33" d="M388.21,86.04c-.56.46-1.2.6-1.9.39.56-.46,1.2-.59,1.9-.39h0Z"/>
            <path class="cls-33" d="M387.21,85.41c.38.57.43,1.18.13,1.8-.39-.57-.43-1.18-.13-1.8h0Z"/>
          </g>
          <g>
            <path class="cls-33" d="M374.22,83.42c.47.55.62,1.19.42,1.89-.47-.55-.62-1.19-.42-1.89h0Z"/>
            <path class="cls-33" d="M373.62,84.43c.56-.39,1.17-.45,1.8-.17-.56.4-1.17.45-1.8.17h0Z"/>
          </g>
          <g>
            <path class="cls-33" d="M383.28,85.2c.72.07,1.27.44,1.61,1.08-.72-.07-1.27-.44-1.61-1.08h0Z"/>
            <path class="cls-33" d="M383.54,86.35c.14-.67.54-1.14,1.19-1.36-.13.67-.54,1.13-1.19,1.36h0Z"/>
          </g>
          <g>
            <path class="cls-33" d="M372.32,80.52c-.18.7-.61,1.19-1.3,1.44.17-.7.62-1.19,1.3-1.44h0Z"/>
            <path class="cls-33" d="M371.14,80.62c.65.23,1.05.69,1.18,1.37-.65-.23-1.05-.7-1.18-1.37h0Z"/>
          </g>
        </g>
        <g>
          <path class="cls-32" d="M342.17,75.05c-10.94,0-19.81,1.21-19.81,2.71l4.82,30.51s.08,2.86,14.99,2.86c0,0,10.33-.41,15.15-2.7l4.66-30.67c0-1.5-8.87-2.71-19.81-2.71Z"/>
          <path class="cls-44" d="M342.17,86.98c8.13,0,15.11.67,18.16,1.63l.9-5.91c-2.33-1.14-9.97-1.98-19.06-1.98s-16.66.83-19.03,1.97l.93,5.91c3.08-.95,10.02-1.61,18.1-1.61Z"/>
          <path class="cls-6" d="M342.17,75.05c-10.94,0-19.81,1.21-19.81,2.71l4.82,30.51s.08,2.86,14.99,2.86c0,0,10.33-.41,15.15-2.7l4.66-30.67c0-1.5-8.87-2.71-19.81-2.71Z"/>
        </g>
        <g>
          <path class="cls-32" d="M379.05,92.13c-5.76,0-10.43.64-10.43,1.43l2.54,16.06s.04,1.51,7.89,1.51c0,0,5.44-.22,7.98-1.42l2.45-16.15c0-.79-4.67-1.43-10.43-1.43Z"/>
          <path class="cls-44" d="M379.05,98.41c4.28,0,7.96.35,9.56.86l.47-3.11c-1.23-.6-5.25-1.04-10.04-1.04s-8.77.44-10.02,1.04l.49,3.11c1.62-.5,5.28-.85,9.53-.85Z"/>
          <path class="cls-6" d="M379.05,92.13c-5.76,0-10.43.64-10.43,1.43l2.54,16.06s.04,1.51,7.89,1.51c0,0,5.44-.22,7.98-1.42l2.45-16.15c0-.79-4.67-1.43-10.43-1.43Z"/>
        </g>
        <rect class="cls-62" x="194.67" y="108.73" width="217.46" height="8.07"/>
        <rect class="cls-57" x="219.33" y="56.62" width="11.81" height="52.12"/>
        <rect class="cls-34" x="219.33" y="63.91" width="11.81" height="10.25"/>
        <rect class="cls-57" x="256.33" y="56.62" width="12.45" height="52.12"/>
        <rect class="cls-34" x="259.69" y="60.78" width="5.73" height="28.08"/>
        <rect class="cls-34" x="256.33" y="96.04" width="12.45" height="6.43"/>
        <rect class="cls-36" x="278.62" y="48.34" width="14.59" height="60.4"/>
        <rect class="cls-34" x="282.14" y="69.94" width="7.56" height="32.54"/>
        <rect class="cls-34" x="278.62" y="54.54" width="14.59" height="7.46"/>
        <rect class="cls-66" x="293.21" y="40.11" width="12.04" height="68.62"/>
        <rect class="cls-34" x="293.21" y="50.48" width="12.04" height="4.06"/>
        <rect class="cls-34" x="293.21" y="57.59" width="12.04" height="2.32"/>
        <rect class="cls-34" x="293.21" y="100.15" width="12.04" height="2.32"/>
        <rect class="cls-51" x="242.96" y="41.5" width="13.37" height="67.23"/>
        <rect class="cls-34" x="245.22" y="46.88" width="3.3" height="45.11"/>
        <rect class="cls-34" x="250.72" y="46.88" width="3.3" height="45.11"/>
        <rect class="cls-66" x="268.78" y="41.5" width="9.84" height="67.23"/>
        <rect class="cls-34" x="268.78" y="46.88" width="9.84" height="45.11"/>
        <rect class="cls-18" x="219.33" y="56.62" width="11.81" height="52.12"/>
        <rect class="cls-36" x="231.14" y="56.62" width="11.81" height="52.12"/>
        <rect class="cls-34" x="231.14" y="63.91" width="11.81" height="10.25"/>
        <rect class="cls-1" x="231.14" y="56.62" width="11.81" height="52.12"/>
        <rect class="cls-18" x="256.33" y="56.62" width="12.45" height="52.12"/>
        <rect class="cls-1" x="278.62" y="48.34" width="14.59" height="60.4"/>
        <rect class="cls-14" x="293.21" y="40.11" width="12.04" height="68.62"/>
        <rect class="cls-19" x="242.96" y="41.5" width="13.37" height="67.23"/>
        <rect class="cls-14" x="268.78" y="41.5" width="9.84" height="67.23"/>
        <rect class="cls-21" x="194.67" y="108.73" width="217.46" height="8.07"/>
      </g>
      <g id="SOFA">
        <path class="cls-52" d="M326.44,384.36h430.52v26.25h-430.52c-7.24,0-13.12-5.88-13.12-13.12h0c0-7.24,5.88-13.12,13.12-13.12Z"/>
        <path class="cls-61" d="M360.42,365.38l-14.88,30.11c-1.22,2.47-.17,5.12,2.36,5.91s5.56-.57,6.78-3.05l14.88-30.11-9.14-2.86Z"/>
        <path class="cls-61" d="M381.32,366.05l-11.37,23.02c-.93,1.89-.13,3.91,1.8,4.52s4.25-.44,5.19-2.33l11.37-23.02-6.99-2.19Z"/>
        <path class="cls-61" d="M729.39,365.38l14.88,30.11c1.22,2.47.17,5.12-2.36,5.91s-5.56-.57-6.78-3.05l-14.88-30.11,9.14-2.86Z"/>
        <path class="cls-61" d="M708.48,366.05l11.37,23.02c.93,1.89.13,3.91-1.8,4.52s-4.25-.44-5.19-2.33l-11.37-23.02,6.99-2.19Z"/>
        <path class="cls-11" d="M360.42,365.38l-14.88,30.11c-1.22,2.47-.17,5.12,2.36,5.91s5.56-.57,6.78-3.05l14.88-30.11-9.14-2.86Z"/>
        <path class="cls-11" d="M381.32,366.05l-11.37,23.02c-.93,1.89-.13,3.91,1.8,4.52s4.25-.44,5.19-2.33l11.37-23.02-6.99-2.19Z"/>
        <path class="cls-11" d="M729.39,365.38l14.88,30.11c1.22,2.47.17,5.12-2.36,5.91s-5.56-.57-6.78-3.05l-14.88-30.11,9.14-2.86Z"/>
        <path class="cls-11" d="M708.48,366.05l11.37,23.02c.93,1.89.13,3.91-1.8,4.52s-4.25-.44-5.19-2.33l-11.37-23.02,6.99-2.19Z"/>
        <path class="cls-30" d="M671.5,214.24s37.61-2.01,54.85-3.79c0,0,13.01-2.26,13.32,7.9s0,74.94,0,74.94c0,0,.47,4.83-8.78,5.16-9.25.32-111.26,1.61-111.26,1.61,0,0-9.72,1.61-9.87-6.29-.16-7.9-.94-71.39-.94-71.39,0,0-1.72-6.93,6.58-6.61,8.31.32,56.1-1.53,56.1-1.53Z"/>
        <path class="cls-8" d="M671.5,214.24s37.61-2.01,54.85-3.79c0,0,13.01-2.26,13.32,7.9s0,74.94,0,74.94c0,0,.47,4.83-8.78,5.16-9.25.32-111.26,1.61-111.26,1.61,0,0-9.72,1.61-9.87-6.29-.16-7.9-.94-71.39-.94-71.39,0,0-1.72-6.93,6.58-6.61,8.31.32,56.1-1.53,56.1-1.53Z"/>
        <path class="cls-30" d="M414.34,216.62s-37.61-1.96-54.85-3.68c0,0-13.01-2.19-13.32,7.68s0,72.87,0,72.87c0,0-.47,4.7,8.78,5.01,9.25.31,111.26,1.57,111.26,1.57,0,0,9.72,1.57,9.87-6.11.16-7.68.94-69.42.94-69.42,0,0,1.72-6.74-6.58-6.42s-56.1-1.49-56.1-1.49Z"/>
        <path class="cls-8" d="M414.34,216.62s-37.61-1.96-54.85-3.68c0,0-13.01-2.19-13.32,7.68s0,72.87,0,72.87c0,0-.47,4.7,8.78,5.01,9.25.31,111.26,1.57,111.26,1.57,0,0,9.72,1.57,9.87-6.11.16-7.68.94-69.42.94-69.42,0,0,1.72-6.74-6.58-6.42s-56.1-1.49-56.1-1.49Z"/>
        <path class="cls-30" d="M489.58,215.33s-15.65-2.24-14.7,9.45-1.1,72.3-1.1,72.3c0,0-1.62,5.47,4.29,5.01s101.12-3.98,119.49-2.54c18.37,1.44,13.9-2.72,14.22-7.85.32-5.12-1.76-71.25-1.76-71.25,0,0,1.12-6.27-11.66-5.3-12.78.97-96,3.69-108.78.17Z"/>
        <path class="cls-8" d="M489.58,215.33s-15.65-2.24-14.7,9.45-1.1,72.3-1.1,72.3c0,0-1.62,5.47,4.29,5.01s101.12-3.98,119.49-2.54c18.37,1.44,13.9-2.72,14.22-7.85.32-5.12-1.76-71.25-1.76-71.25,0,0,1.12-6.27-11.66-5.3-12.78.97-96,3.69-108.78.17Z"/>
        <rect class="cls-35" x="348.59" y="306.17" width="391.22" height="26.49"/>
        <path class="cls-44" d="M666.26,296.43h-44.38s-6.18.19-2.06-3.56c4.12-3.74,15.35-32.58,18.54-49.62,3.18-17.04,1.69-10.67,12.55-10.86,10.86-.19,43.07.37,43.07.37,0,0,7.68-2.43,3.93,5.8s-8.24,57.49-19.29,57.86c-11.05.37-12.36,0-12.36,0Z"/>
        <rect class="cls-30" x="350.81" y="296.52" width="132.16" height="36.14" rx="5.01" ry="5.01"/>
        <rect class="cls-30" x="603" y="296.52" width="132.16" height="36.14" rx="5.01" ry="5.01"/>
        <rect class="cls-30" x="482.97" y="296.52" width="120.03" height="36.14" rx="5.01" ry="5.01"/>
        <rect class="cls-8" x="350.81" y="296.52" width="132.16" height="36.14" rx="5.01" ry="5.01"/>
        <rect class="cls-8" x="603" y="296.52" width="132.16" height="36.14" rx="5.01" ry="5.01"/>
        <rect class="cls-8" x="482.97" y="296.52" width="120.03" height="36.14" rx="5.01" ry="5.01"/>
        <path class="cls-9" d="M666.26,296.43h-44.38s-6.18.19-2.06-3.56c4.12-3.74,15.35-32.58,18.54-49.62,3.18-17.04,1.69-10.67,12.55-10.86,10.86-.19,43.07.37,43.07.37,0,0,7.68-2.43,3.93,5.8s-8.24,57.49-19.29,57.86c-11.05.37-12.36,0-12.36,0Z"/>
        <path class="cls-25" d="M713.23,296.39l-45.22.04s-3.29,1.95-2.1-3.56c2.2-10.18,29.74-50.83,29.74-50.83,0,0,5.01-11.74,16.05-12.44,11.05-.7,43.86-1.66,43.86-1.66,0,0,7.7-2.79,4.27,5.61-3.43,8.41-22.76,62.45-34.01,62.83-11.26.38-12.59,0-12.59,0Z"/>
        <path class="cls-16" d="M713.23,296.39l-45.22.04s-3.29,1.95-2.1-3.56c2.2-10.18,29.74-50.83,29.74-50.83,0,0,5.01-11.74,16.05-12.44,11.05-.7,43.86-1.66,43.86-1.66,0,0,7.7-2.79,4.27,5.61-3.43,8.41-22.76,62.45-34.01,62.83-11.26.38-12.59,0-12.59,0Z"/>
        <path class="cls-25" d="M369.65,296.62l36.89.03s2.68,1.59,1.71-2.9c-1.8-8.3-8.88-41.46-8.88-41.46,0,0,1.72-15.58-9.11-10.14-8.07,4.05-45.82,1.82-45.82,1.82,0,0-10.59-1.87-5.32,12.91,3.84,10.76,4.72,41.79,10.77,40.89,13.19-1.95,19.76-1.14,19.76-1.14Z"/>
        <path class="cls-16" d="M369.65,296.62l36.89.03s2.68,1.59,1.71-2.9c-1.8-8.3-8.88-41.46-8.88-41.46,0,0,1.72-15.58-9.11-10.14-8.07,4.05-45.82,1.82-45.82,1.82,0,0-10.59-1.87-5.32,12.91,3.84,10.76,4.72,41.79,10.77,40.89,13.19-1.95,19.76-1.14,19.76-1.14Z"/>
        <path class="cls-68" d="M756.71,242.88c-12.3.84-22.34,33.22-21.5,64.39.23,8.56.33,17.26.36,25.4h-.06s-385.05,0-385.05,0h0s-.06,0-.06,0c.03-8.14.13-16.84.36-25.4.84-31.17-9.2-63.55-21.5-64.39-12.3-.84-29.94,11.29-29.52,67.33.4,53.51,46.54,60.88,50.72,61.44v.04h385.05v-.04c4.18-.56,50.32-7.93,50.72-61.44.42-56.04-17.22-68.17-29.52-67.33Z"/>
        <path class="cls-17" d="M756.71,242.88c-12.3.84-22.34,33.22-21.5,64.39.23,8.56.33,17.26.36,25.4h-.06s-385.05,0-385.05,0h0s-.06,0-.06,0c.03-8.14.13-16.84.36-25.4.84-31.17-9.2-63.55-21.5-64.39-12.3-.84-29.94,11.29-29.52,67.33.4,53.51,46.54,60.88,50.72,61.44v.04h385.05v-.04c4.18-.56,50.32-7.93,50.72-61.44.42-56.04-17.22-68.17-29.52-67.33Z"/>
      </g>
      <g>
        <ellipse class="cls-52" cx="109.05" cy="403.72" rx="42.45" ry="11.26"/>
        <path class="cls-45" d="M106.26,344.36c-18.43,0-33.37,2.05-33.37,4.57s14.94,4.57,33.37,4.57,33.37-2.05,33.37-4.57-14.94-4.57-33.37-4.57Z"/>
        <g>
          <path class="cls-42" d="M134.07,349.85c-.67-.7-4.05-.34-5.66-.12-.61-.07-1.24-.14-1.89-.21-.54-.2-1.2-.5-1.77-.91-1.18-.85-3.91.44-6.39,0s-4.04-.39-7.43-1.44c-3.39-1.04-15.98,1.04-19.04.91-3.07-.13-5.15,1.36-5.15,1.36,0,0-4.31.59-5.54.08s-4.3,1.57-4.3,1.57c5.64,1.43,16.68,2.4,29.38,2.4s24.16-1.01,29.69-2.49c0,0-.99-.23-1.88-1.16Z"/>
          <path class="cls-10" d="M135.95,351.01s-.99-.23-1.88-1.16c-.67-.7-4.05-.34-5.66-.12-.61-.07-1.24-.14-1.89-.21-.54-.2-1.2-.5-1.77-.91-1.18-.85-3.91.44-6.39,0s-4.04-.39-7.43-1.44c-3.39-1.04-15.98,1.04-19.04.91-3.07-.13-5.15,1.36-5.15,1.36,0,0-4.31.59-5.54.08s-4.3,1.57-4.3,1.57"/>
        </g>
        <path class="cls-64" d="M106.26,353.5c-18.43,0-33.37-2.05-33.37-4.57l8.12,51.4s.14,4.82,25.25,4.82c0,0,17.41-.69,25.53-4.54l7.84-51.68c0,2.52-14.94,4.57-33.37,4.57Z"/>
        <path class="cls-44" d="M106.26,359.97c-15.38,0-28.29-1.43-32.16-3.37l1,6.31.54,3.44c5.13,1.62,16.9,2.76,30.62,2.76s25.66-1.15,30.73-2.79l.51-3.38.97-6.37c-3.8,1.95-16.76,3.39-32.21,3.39Z"/>
        <path class="cls-6" d="M106.26,353.5c-18.43,0-33.37-2.05-33.37-4.57l8.12,51.4s.14,4.82,25.25,4.82c0,0,17.41-.69,25.53-4.54l7.84-51.68c0,2.52-14.94,4.57-33.37,4.57Z"/>
        <path class="cls-10" d="M106.26,344.36c-18.43,0-33.37,2.05-33.37,4.57s14.94,4.57,33.37,4.57,33.37-2.05,33.37-4.57-14.94-4.57-33.37-4.57Z"/>
        <g>
          <path class="cls-27" d="M61.11,295.81s-15.28,10.05-31.65,17.89c0,0-30.41,12.11-28.9-7.16,1.51-19.27,28.35-19.68,28.35-19.68,0,0,20.78-.96,32.2,8.95Z"/>
          <path class="cls-27" d="M112.43,306.04s16.87-6.98,32.55-16.11c0,0,27.1-18.33,10.4-27.89-16.7-9.56-32.16,12.38-32.16,12.38,0,0-12.5,16.63-10.79,31.62Z"/>
          <path class="cls-27" d="M75.55,289.18c-23.09-8.24-22.64-8.4-39.83-17.45,0,0-32.89-20.46-11.45-33,21.44-12.54,39.56,12.97,39.56,12.97,0,0,14.71,19.29,11.72,37.48Z"/>
          <path class="cls-27" d="M84.02,236.8s-19.61-9.99-37.27-22.41c0,0-30-24.5-7.12-34.19,22.87-9.69,37.57,17.93,37.57,17.93,0,0,12.12,21.02,6.83,38.67Z"/>
          <path class="cls-27" d="M125.18,202.23s12.79-11.43,36.3-15.21c5.33-.86,10.6-2.13,15.66-4.01,12.03-4.49,27.09-13.55,14.91-28.69-8.2-10.19-18.79-11.91-28.12-10.63-12.86,1.77-23.94,9.87-30.17,21.25-5.64,10.3-11.58,24.96-8.58,37.28Z"/>
          <path class="cls-27" d="M114.21,244.07s23.51,3.05,50.57,6.25c0,0,49.07,2.46,37.66-24.08-11.41-26.55-49.77-14.18-49.77-14.18,0,0-34.08,9.77-38.45,32.01Z"/>
          <path class="cls-27" d="M109.25,210.13s-16.84-15.39-31.35-32.79c0,0-23.98-33.06-.22-37.15,23.76-4.08,32.5,28.24,32.5,28.24,0,0,7.55,24.83-.92,41.69Z"/>
          <path class="cls-33" d="M160.82,162.25c-24.41,15.15-39.25,39.14-48.25,61.66-.91-10.53-5.41-33.72-12.6-43.84,0,0,10.32,25.44,9.73,51.51-9.47,27.09-10.77,50.18-10.77,50.18-7.68-50.56-29.98-69.14-29.98-69.14,27.04,31.38,32.1,109.82,32.1,109.82-6.5-23.95-44.11-51.12-44.11-51.12,8.05,6.71,21.61,23.25,21.61,23.25-30.24-1.55-39.43,7.33-39.43,7.33,23.64-9.19,40.77-4.23,40.77-4.23,15.32,8.05,21.88,38.43,24.21,53.13,1.06-.16,2.09-.29,3.11-.38-1.1-7.2-.85-15.06-1.63-22.42,2.66-17.47,13.42-31.78,13.42-31.78-9.4,7.74-13.58,20.33-15.42,26.56-1.42-15.88-2-33.44-1.39-43.69.51-8.59,1.74-16.85,3.49-24.75,23.65-23.36,40.69-24.56,40.69-24.56-7.89-1.55-30.07,11.43-39.3,18.76,11.32-43.53,38.56-74.93,53.75-86.29Z"/>
          <path class="cls-5" d="M61.11,295.81s-15.28,10.05-31.65,17.89c0,0-30.41,12.11-28.9-7.16,1.51-19.27,28.35-19.68,28.35-19.68,0,0,20.78-.96,32.2,8.95Z"/>
          <path class="cls-5" d="M112.43,306.04s16.87-6.98,32.55-16.11c0,0,27.1-18.33,10.4-27.89-16.7-9.56-32.16,12.38-32.16,12.38,0,0-12.5,16.63-10.79,31.62Z"/>
          <path class="cls-5" d="M75.55,289.18c-23.09-8.24-22.64-8.4-39.83-17.45,0,0-32.89-20.46-11.45-33,21.44-12.54,39.56,12.97,39.56,12.97,0,0,14.71,19.29,11.72,37.48Z"/>
          <path class="cls-5" d="M84.02,236.8s-19.61-9.99-37.27-22.41c0,0-30-24.5-7.12-34.19,22.87-9.69,37.57,17.93,37.57,17.93,0,0,12.12,21.02,6.83,38.67Z"/>
          <path class="cls-5" d="M125.18,202.23s12.79-11.43,36.3-15.21c5.33-.86,10.6-2.13,15.66-4.01,12.03-4.49,27.09-13.55,14.91-28.69-8.2-10.19-18.79-11.91-28.12-10.63-12.86,1.77-23.94,9.87-30.17,21.25-5.64,10.3-11.58,24.96-8.58,37.28Z"/>
          <path class="cls-5" d="M114.21,244.07s23.51,3.05,50.57,6.25c0,0,49.07,2.46,37.66-24.08-11.41-26.55-49.77-14.18-49.77-14.18,0,0-34.08,9.77-38.45,32.01Z"/>
          <path class="cls-5" d="M109.25,210.13s-16.84-15.39-31.35-32.79c0,0-23.98-33.06-.22-37.15,23.76-4.08,32.5,28.24,32.5,28.24,0,0,7.55,24.83-.92,41.69Z"/>
          <path class="cls-3" d="M160.82,162.25c-24.41,15.15-39.25,39.14-48.25,61.66-.91-10.53-5.41-33.72-12.6-43.84,0,0,10.32,25.44,9.73,51.51-9.47,27.09-10.77,50.18-10.77,50.18-7.68-50.56-29.98-69.14-29.98-69.14,27.04,31.38,32.1,109.82,32.1,109.82-6.5-23.95-44.11-51.12-44.11-51.12,8.05,6.71,21.61,23.25,21.61,23.25-30.24-1.55-39.43,7.33-39.43,7.33,23.64-9.19,40.77-4.23,40.77-4.23,20.44,10.73,24.21,53.13,24.21,53.13l3.11-.38c-.88-9.98-.41-10.91-1.51-21.2,2.66-17.47,13.29-33,13.29-33-9.4,7.74-13.58,20.33-15.42,26.56-1.42-15.88-2-33.44-1.39-43.69.51-8.59,1.74-16.85,3.49-24.75,23.65-23.36,40.69-24.56,40.69-24.56-7.89-1.55-30.07,11.43-39.3,18.76,11.32-43.53,38.56-74.93,53.75-86.29Z"/>
        </g>
      </g>
    </g>
    <g id="CHICA_1" data-name="CHICA 1">
      <g id="PELO_1" data-name="PELO 1">
        <path class="cls-60" d="M399.54,224.14c8.11-10.42,9.67-25.64,11.47-38.72,1.48-10.73,3.24-21.15,5.28-31.85s5.92-21.35,14.83-27.52c8.67-6,20.66-7.59,31.04-5.72,6.92,1.25,13.54,4.09,18.82,8.73,4.75,4.17,8.14,10.08,10.06,16.1s2.46,12.25,3.81,18.42c1.7,7.76,3.64,15.73,5.98,23.32,1.58,5.14,5.81,8.92,8.5,13.58,2.69,4.65,4.93,9.52,6.26,14.73,1.77,6.97,1.68,12.44.86,19.86-94.5,20.76-114.04-11.23-117.64-9.89"/>
        <path class="cls-46" d="M416.02,152.63c3.3-6.59,6.81-16.43,14.85-18.23,2.57-.62,5.1-1.4,7.59-2.3,3.34-1.09,6.83-2.97,10.47-2.13.27.07.19.51-.1.45-1.71-.3-3.42.15-5.07.7-3.32,1.2-6.63,2.63-10.06,3.59-1.65.53-3.5.68-5.03,1.43-4.63,2.51-7.34,7.49-9.85,11.95-.86,1.56-1.59,3.15-2.5,4.72-.11.2-.44.02-.3-.19h0Z"/>
        <path class="cls-46" d="M503.91,205.29c4.88,7.15,6.47,16.25,5.13,24.74-.09.65-1.09.51-.99-.15,1.55-8.28.21-17.27-4.38-24.41-.12-.15.13-.35.25-.18h0Z"/>
        <path class="cls-46" d="M422.09,196.14c-4.99,5.92-8.47,13.48-8.45,21.3-.01.65-1.01.64-1-.02.19-8.01,3.9-15.63,9.16-21.55.17-.18.47.08.28.27h0Z"/>
        <path class="cls-46" d="M451.06,128.47c-6.26-3.5-14.09-4.8-20.74-1.59-.12.07-.24-.13-.11-.2,4.86-2.84,10.93-3.06,16.17-1.16.5.05,6.6,2.88,4.67,2.95h0Z"/>
        <path class="cls-46" d="M453.89,127.91c5.03-4.6,12.76-7.79,19.23-4.36,0,0,1.22.66,1.22.66.06.03.08.1.05.16-.03.06-.11.08-.17.04-1.61-.83-3.3-1.58-5.11-1.73-5.43-.61-10.69,2.29-14.51,5.93-.46.5-1.21-.23-.71-.7h0Z"/>
        <path class="cls-46" d="M453.03,124.44c1.14-2.25,3.24-4.46,5.9-4.64.07,0,.13.05.13.12,0,.06-.04.12-.1.13-2.45.64-4.2,2.58-5.69,4.52-.09.14-.33.01-.25-.14h0Z"/>
        <path class="cls-46" d="M451.06,124.37c-1.46-2.23-3.99-3.49-6.64-3.63-.27-.02-.26-.44.01-.44,2.8-.21,5.77,1.31,6.9,3.94.08.18-.19.3-.28.13h0Z"/>
        <path class="cls-11" d="M453.04,119.8s34.1-2.97,39.85,32.29c3.52,21.63,7.08,33.52,8.68,37.09,3.87,8.63,16.54,14.81,14.89,45.89"/>
        <path class="cls-11" d="M451.2,119.68s-25.51-.19-32.93,24.66c-9.04,30.25-6.98,69.14-19.12,79.99"/>
        <path class="cls-46" d="M462.48,129.51c8.39-.71,17.62,3.07,21.44,10.94,4.04,7.74,2.11,16.65,2.89,24.98.36,5.57,1.58,11.19,4.62,15.93.04.07.02.16-.04.2-5.13-6.76-5.19-16.28-5.3-24.54.12-5.56-.03-11.31-2.61-16.35-3.71-7.73-12.73-11.42-20.97-10.87-.19.03-.23-.29-.03-.3h0Z"/>
        <path class="cls-46" d="M450.84,134.24c-15.17,3.03-26.15,14.43-28.64,29.69-.04.3-.53.24-.48-.07,1.12-11.28,8.11-21.75,18.42-26.61,3.36-1.67,6.95-2.84,10.67-3.34.21-.03.27.31.04.34h0Z"/>
        <path class="cls-46" d="M455.24,131.13c3.53,3.3,8.31,3.93,12.76,5.33,14.07,4.24,13.84,17.43,15.1,29.56.27,2.32.61,4.64,1.31,6.86.1.3-.39.49-.49.16-1.55-4.52-1.85-9.29-2.42-13.93-1.89-15.91-5.33-19.58-20.52-23.88-2.24-.83-4.33-2.13-5.99-3.83-.16-.16.08-.45.26-.27h0Z"/>
        <path class="cls-46" d="M454.47,136.03c2.73,3.53,6.39,6.17,10.38,8.12,4.77,2.64,6.1,5.85,6.9,10.98.05.22-.29.32-.35.09-.84-5.05-2.11-8.14-6.78-10.67-1.96-1.03-4.02-2.05-5.77-3.46-1.78-1.38-3.42-2.94-4.84-4.72-.23-.29.23-.65.45-.34h0Z"/>
        <path class="cls-46" d="M451.79,139.74c-10.91.47-10.12,4.98-17.84,10.29-.13.09-.3-.1-.18-.22,3.95-3.64,6.66-9.65,12.5-10.47,1.87-.3,3.72-.2,5.53.02.22.02.22.37,0,.38h0Z"/>
      </g>
      <g id="TORSO_1" data-name="TORSO 1">
        <path class="cls-32" d="M516.45,235.07l9.51,6.27-3.25,54.25s-3.54-12.23-10.57-12.85c-.68-.06-2.96,5.76-2.83,6.61.28,1.82-2.8-19.43-1.43-32.61.7-5.21,4.42-13.24,8.56-21.68Z"/>
        <path class="cls-32" d="M515.58,425.03l-127.54,2.98c11.9-71.23,22.76-148.73,7.9-202.11,10.16-2.91,19.94-6.07,29.23-9.55l2.13-2.91,11-2.16,35.61,1.24,11.19,4.79.85,1.6,32.57,17.19,4.7,4.16c-10.02,7.83-5.27,28.8-8.73,39.94-6.32,43.6-4.18,93.13,1.1,144.83Z"/>
        <path class="cls-25" d="M438.94,207.89c-.63,3.1.31,2.78-.32,5.88-.43,2.08-.43,3.58-.32,5.71.17,3.37-1.6,6.09-1.47,9.06.15,3.37-.57,15.53,2.9,26.34,3.55,11.02,21.05,5.51,24.96-.35,6.43-9.65,8.24-34.74,8.7-37.65.27-1.75.07-3.53-.13-5.29-.24-2.12.61-4.11.36-6.23-.01-.12-.37-2.53-.45-2.61-.11-.11-1.05.08-2.26,2.13-4.76,8.09-23.44,9.32-31.97,3.03"/>
        <path class="cls-53" d="M450.63,251.61c-6.13-4.76-10.11-11.99-13.8-23.07-10.8,73.5-8.91,133.59-9.53,200.84l57.52-.74-14.26-98.64c-3.59-38.42-4.32-63.26,1-97.48-5.56,9.24-12.86,14.96-20.93,19.09Z"/>
        <line class="cls-11" x1="473.62" y1="214.19" x2="473.17" y2="202.74"/>
        <line class="cls-11" x1="438.94" y1="207.45" x2="438.3" y2="220.1"/>
        <path class="cls-11" d="M436.7,228.03s3.91,16.42,13.93,23.58c0,0,11.11-2.96,20.93-19.54"/>
        <path class="cls-11" d="M485.95,218.64c11.12,7.42,23.16,12.82,32.57,17.45"/>
        <line class="cls-11" x1="515.58" y1="240.51" x2="519.98" y2="235.36"/>
        <path class="cls-11" d="M473.62,214.47s-9.59,66.44-3.25,113.84"/>
        <path class="cls-11" d="M470.55,330s8.12,65.81,13.15,93.11"/>
        <path class="cls-11" d="M438.3,220.1s-3.53,13.83-6.28,42.84c0,0-4.22,35.62-4.73,160.16"/>
        <path class="cls-11" d="M425.17,216.35c-12.11,5.04-21.98,7.76-29.23,9.55"/>
        <path class="cls-11" d="M473.62,212.52s6.03,1.95,11.48,4.79c0,0,5.57,24.42,5.57,32.22,0,0-10.11,8.59-11.7,15.12,0,0,5.65,17.75,9.39,20.77-7.28,14.9-11.55,33.71-13.61,59.45"/>
        <path class="cls-11" d="M438.3,211.28s-5.5,1.24-11.6,2.18c0,0-10.77,22.61-12.48,30.22,0,0,7.99,10.6,8.11,17.31,0,0-8.87,14.69-12.69,19.94"/>
        <path class="cls-11" d="M409.64,280.93s15.21,54.68,16.39,64.6"/>
        <path class="cls-11" d="M514.49,280.19c-6.33,32.62-4.16,103.99,1.1,150.16"/>
        <path class="cls-11" d="M402.92,299.25s-6.19,89-13.89,123.87"/>
        <polygon class="cls-53" points="394.48 428.01 510.6 428.01 508.59 529.93 456.06 529.93 452.76 475.58 447.72 529.93 398.68 529.93 394.48 428.01"/>
        <polygon class="cls-4" points="394.48 428.01 510.6 428.01 508.59 529.93 456.06 529.93 452.76 475.58 447.72 529.93 398.68 529.93 394.48 428.01"/>
      </g>
      <g id="BRAZO_I_1" data-name="BRAZO I 1">
        <path class="cls-32" d="M363.88,320.6s6.2-52.5,18.81-76.05c12.61-23.55,15.95-18.24,15.95-18.24,0,0,10.58,5.78,5.77,44.12-4.81,38.35,3.31,110.89-40.53,50.16Z"/>
        <path class="cls-11" d="M404.14,239.82s3.88,9.73,1.2,35.64"/>
        <path class="cls-11" d="M395.42,226.31c-3.76,2.93-15.51,19.34-19.54,35.51"/>
        <line class="cls-11" x1="398.66" y1="230.29" x2="394.74" y2="224.77"/>
      </g>
      <g id="CARA_1" data-name="CARA 1">
        <path class="cls-25" d="M452.71,142.35c-1.31-.28-2.78.85-3.73,1.78-3.21,3.13-4.37,3.79-8.57,6.43-1.92,1.2-7.08,3.49-8.81,4.95-2.67,2.25-5.19,5.76-5.15,9.25.04,3.55.01,10.35.25,13.89.38,5.7,1.15,9.25,2.63,13.09s4.73,11.79,8.02,14.27c4.34,3.27,10.03,6.46,14.1,6.04,6.84-.7,7.5.35,10.99-1.86s9.72-4.6,10.72-7.46c.69-1.98,4.41-7.27,4.92-9.3,1.42-5.71,3.96-13.05,3.95-15.63-.01-2.23-2.01-10.2-2.86-12.26-3.64-8.72-6.05-5.65-9.86-8.04-5.09-3.19-11.89-9.17-15.24-14.16l-1.37-1Z"/>
        <ellipse class="cls-29" cx="466.78" cy="180.17" rx="14.62" ry="8.46" transform="translate(-27.78 104.32) rotate(-12.39)"/>
        <ellipse class="cls-28" cx="435.6" cy="180.52" rx="8.46" ry="14.62" transform="translate(165.84 567.26) rotate(-77.61)"/>
        <path class="cls-11" d="M426.77,164.76s-3.98,49.18,27.71,47.24c24.63-1.5,27.38-31.6,27.38-31.6"/>
        <path class="cls-11" d="M453.38,142.84s13.1,15.42,19.77,15.87c6.67.45,8.82,14.48,10.39,28.19,1.57,13.71,4.9,15.75,4.9,15.75"/>
        <path class="cls-11" d="M450.81,142.63s-8.04,7.93-17.65,12c-9.61,4.08-6.47,27.39-14.9,32.26"/>
        <path d="M454.41,166.81c-.63-.79-1.2-1.19-1.38-1.68.48.08.93.25,1.28.49.05-.36.18-.72.36-1.06.05-.08.1-.16.19-.22.12-.08,1.24-.45,3.3-.81,4.85-.85,5.78-.57,7.86-.63.55-.02,1.18.18,1.72.34.27.08.52.2.77.32,1.5.72,3,1.44,4.51,2.17-1.37-.38-2.74-.75-4.11-1.13-.39-.11-.8-.19-1.2-.24-.94-.12-4.57.33-7.86,1.03-1.65.35-3.68,1.11-5.45,1.42"/>
        <path d="M444.99,166.27c.44-.82.87-1.26.97-1.76-.39.1-.74.3-1,.57-.07-.36-.21-.71-.39-1.03-.04-.08-.09-.16-.17-.21-.1-.07-1.05-.37-2.75-.61-4.01-.55-4.74-.22-6.44-.16-.45.02-.94.25-1.37.44-.21.1-.41.23-.6.37-1.16.81-2.31,1.62-3.47,2.43,1.08-.46,2.16-.91,3.24-1.37.31-.13.63-.23.95-.31.75-.18,3.74.06,6.47.56,1.37.25,3.08.88,4.55,1.09"/>
        <g>
          <path class="cls-32" d="M441,193.64s.63,6.86,8.03,6.07c10.82-1.15,13.97-6.81,13.97-6.81,0,0-14.75,3.26-22.01.74Z"/>
          <path class="cls-39" d="M440.52,193.1s5.92.04,7.36-1.13l1.35.93,2.31-.93s7.65,1.65,11.12.93c0,0-18.59,5.28-22.14.2Z"/>
          <path class="cls-31" d="M440.52,193.1c3.11,3.51,12.48,1.47,16.74.87,1.92-.31,3.81-.74,5.74-1.07-.92.32-1.86.59-2.79.89-4.71,1.33-16.46,4.04-19.69-.69h0Z"/>
          <path class="cls-39" d="M462.31,193.84s-4.29,10.37-15.11,8.19c0,0-6.25-1.79-5.79-6.73,0,0,.81,3.66,6.43,3.93,6.4.31,12.3-3.37,14.46-5.39Z"/>
          <path class="cls-31" d="M441.41,195.3c.62,1.91,2.79,2.71,4.56,3.21,3.81.93,7.8.08,11.3-1.58,1.76-.85,3.43-1.92,5.03-3.09-1.41,1.41-3.02,2.62-4.77,3.6-3.5,1.94-7.82,2.83-11.72,1.62-1.8-.62-4.07-1.68-4.41-3.76h0Z"/>
        </g>
        <path class="cls-25" d="M448.1,168.37c-.08,2.7-.16,5.43-.77,8.07s-1.78,5.21-3.75,7.06c-.74.69-1.67,1.56-1.35,2.52.07.21.2.4.34.58,1.3,1.71,3.47,2.72,5.61,2.63l5.21-2.65-5.28-18.21Z"/>
        <path d="M448.1,168.37c.28,4.4.17,9.1-2.19,13.02-1.84,3.35-5.9,3.7-.82,6.94.92.54,1.99.83,3.09.9-1.1.16-2.24-.04-3.3-.45-1.41-.68-3.82-2.16-2.92-4.05.89-1.48,2.31-2.33,3.1-3.86,2.28-3.72,2.54-8.23,3.04-12.5h0Z"/>
        <g>
          <path class="cls-32" d="M444.87,173.78s-3.83,1.43-7.89,1.24c-2.21-.1-4.57-.01-6.23-2.41,0,0,5.38-7.24,14.12,1.16Z"/>
          <path d="M444.73,173.63s-7.68-8.42-13.7-1.28c0,0,6.41-4.48,13.7,1.28Z"/>
          <path class="cls-37" d="M431.77,168.9s5.95-2.49,8.94-.39c0,0-4.01-3.51-8.94.39Z"/>
          <path class="cls-37" d="M469.94,169.05s-5.78-2.86-8.89-.95c0,0,4.23-3.25,8.89.95Z"/>
          <path d="M430.96,172.9s4.78,3.74,13.29,1.08c0,0-9.38,4.36-13.29-1.08Z"/>
          <g class="cls-67">
            <ellipse cx="437.08" cy="173.45" rx="3.02" ry="3.52" transform="translate(188.2 572.43) rotate(-79.69)"/>
          </g>
          <g>
            <path d="M434.96,170.38s-4.42,1.17-5.32.56c0,0,.54.85,1.63,1.15l3.68-1.71Z"/>
            <path d="M434.66,169.89s-1.59.44-3.7.14c0,0,.29,1.05,1.6,1.04l2.1-1.19Z"/>
            <path d="M436.27,169.5s-2.34.51-3.53-.33c0,0-.22.99,1.07,1.21l2.46-.88Z"/>
            <path d="M437.85,169.63s-2.07.13-3.65-.66c0,0-.18.61.52,1.06l3.13-.4Z"/>
            <path d="M439.3,170.17s-2.52-.54-3.69-1.38c0,0-.34.27.4.95l3.29.43Z"/>
            <path d="M439.23,169.95s-1.17.04-2.42-1.05c0,0-.18.29.39,1.01l2.03.04Z"/>
          </g>
          <path class="cls-32" d="M456.12,174.18s3.87,1.31,7.92,1.01c2.2-.16,4.56-.15,6.16-2.59,0,0-5.59-7.08-14.08,1.57Z"/>
          <path d="M456.25,174.03s7.43-8.64,13.66-1.67c0,0-6.54-4.29-13.66,1.67Z"/>
          <path d="M469.99,172.9s-4.67,3.88-13.26,1.47c0,0,9.5,4.09,13.26-1.47Z"/>
          <g class="cls-43">
            <ellipse cx="462.3" cy="173.94" rx="3.52" ry="3.02" transform="translate(-26.03 99.72) rotate(-11.98)"/>
          </g>
          <g>
            <path d="M465.93,170.5s4.45,1.04,5.33.41c0,0-.52.86-1.6,1.2l-3.73-1.6Z"/>
            <path d="M466.21,170s1.6.39,3.7.04c0,0-.26,1.06-1.57,1.09l-2.13-1.13Z"/>
            <path d="M464.58,169.66s2.35.44,3.52-.43c0,0,.25.99-1.03,1.24l-2.49-.81Z"/>
            <path d="M463.01,169.83s2.07.07,3.63-.76c0,0,.2.61-.49,1.07l-3.14-.31Z"/>
            <path d="M461.57,170.41s2.5-.62,3.65-1.48c0,0,.35.26-.37.96l-3.28.52Z"/>
            <path d="M461.64,170.19s1.17,0,2.39-1.12c0,0,.19.28-.36,1.02l-2.03.1Z"/>
          </g>
        </g>
      </g>
      <g id="ESTE">
        <path class="cls-68" d="M477.4,239.14c-.14,0-.27-.04-.4-.11-.51-.26-.71-.88-.45-1.39,5.79-11.38,16.27-36.69,13.23-51.24-.37-1.76-1.74-3.13-3.5-3.48l-3.62-.74c-.56-.11-.92-.66-.81-1.22.11-.56.66-.92,1.22-.81l3.62.74c2.57.52,4.57,2.52,5.11,5.08,3.09,14.76-7.52,41.03-13.41,52.6-.19.38-.59.59-.98.56Z"/>
        <path class="cls-68" d="M428.22,237.38c-.3-.07-.57-.28-.7-.58-5.63-12.6-12.04-37.45-12.16-45.3-.08-5.5,3.39-10.32,8.64-11.99l.42-.13c.54-.17,1.12.13,1.3.67.17.54-.13,1.12-.67,1.3l-.42.13c-4.38,1.39-7.27,5.41-7.2,9.99.12,7.72,6.44,32.1,11.98,44.49.23.52,0,1.13-.52,1.36-.22.1-.45.11-.66.06Z"/>
        <path class="cls-2" d="M477.4,239.14c-.14,0-.27-.04-.4-.11-.51-.26-.71-.88-.45-1.39,5.79-11.38,16.27-36.69,13.23-51.24-.37-1.76-1.74-3.13-3.5-3.48l-3.62-.74c-.56-.11-.92-.66-.81-1.22.11-.56.66-.92,1.22-.81l3.62.74c2.57.52,4.57,2.52,5.11,5.08,3.09,14.76-7.52,41.03-13.41,52.6-.19.38-.59.59-.98.56Z"/>
        <path class="cls-2" d="M428.22,237.38c-.3-.07-.57-.28-.7-.58-5.63-12.6-12.04-37.45-12.16-45.3-.08-5.5,3.39-10.32,8.64-11.99l.42-.13c.54-.17,1.12.13,1.3.67.17.54-.13,1.12-.67,1.3l-.42.13c-4.38,1.39-7.27,5.41-7.2,9.99.12,7.72,6.44,32.1,11.98,44.49.23.52,0,1.13-.52,1.36-.22.1-.45.11-.66.06Z"/>
        <ellipse class="cls-62" cx="425.74" cy="180.17" rx="2.49" ry="1.89" transform="translate(-31.36 111.09) rotate(-14.34)"/>
        <ellipse class="cls-62" cx="482.86" cy="181.17" rx="1.8" ry="2.38" transform="translate(202.38 613.95) rotate(-77.62)"/>
        <ellipse class="cls-11" cx="425.74" cy="180.17" rx="2.49" ry="1.89" transform="translate(-31.36 111.09) rotate(-14.34)"/>
        <ellipse class="cls-11" cx="482.86" cy="181.17" rx="1.8" ry="2.38" transform="translate(202.38 613.95) rotate(-77.62)"/>
        <path class="cls-36" d="M479.09,235.55c-.96-.61-2.24-.32-2.85.64-5.7,9.02-18.03,23.26-21.65,26.43-1.34,1.18-3.38,1.13-4.63-.11-6.47-6.41-17.83-21.28-21.1-30.64-.38-1.08-1.56-1.64-2.63-1.27-1.08.38-1.64,1.55-1.27,2.63,3.41,9.74,15.34,25.53,22.1,32.22,1.05,1.04,2.35,1.69,3.71,1.97v28.03c0,1.1.9,2,2,2s2-.9,2-2v-28.12s-.01-.09-.01-.13c.92-.31,1.79-.79,2.56-1.47,3.82-3.36,16.45-17.89,22.41-27.33.61-.96.32-2.24-.64-2.85Z"/>
        <path class="cls-11" d="M479.09,235.55c-.96-.61-2.24-.32-2.85.64-5.7,9.02-18.03,23.26-21.65,26.43-1.34,1.18-3.38,1.13-4.63-.11-6.47-6.41-17.83-21.28-21.1-30.64-.38-1.08-1.56-1.64-2.63-1.27-1.08.38-1.64,1.55-1.27,2.63,3.41,9.74,15.34,25.53,22.1,32.22,1.05,1.04,2.35,1.69,3.71,1.97v28.03c0,1.1.9,2,2,2s2-.9,2-2v-28.12s-.01-.09-.01-.13c.92-.31,1.79-.79,2.56-1.47,3.82-3.36,16.45-17.89,22.41-27.33.61-.96.32-2.24-.64-2.85Z"/>
      </g>
    </g>
    <g>
      <polygon class="cls-41" points="611.08 529.93 610.96 429.01 610.93 429.04 610.93 420.37 550.5 480.8 136.15 480.76 136.15 487.23 136.15 491.89 136.15 529.93 153.76 529.93 153.76 491.89 532.89 491.93 532.89 529.93 550.5 529.93 562.09 529.93 561.98 480.45 599.56 442.95 599.19 529.93 611.08 529.93"/>
      <polygon class="cls-55" points="136.15 480.76 196.54 420.37 610.93 420.37 550.5 480.8 136.15 480.76"/>
      <polygon class="cls-41" points="190.99 425.92 316.63 428.88 188.03 428.88 190.99 425.92"/>
      <polygon class="cls-41" points="177.92 438.98 252.63 442.09 174.82 442.09 177.92 438.98"/>
      <polygon class="cls-41" points="149.98 466.93 190.54 469.12 147.99 468.92 149.98 466.93"/>
      <polygon class="cls-41" points="161.69 455.22 288.57 460.21 157.64 459.27 161.69 455.22"/>
      <polygon class="cls-41" points="602.78 429.08 543.07 428.88 599.34 431.96 602.78 429.08"/>
      <polygon class="cls-41" points="592.36 438.98 428.91 442.09 589.21 442.09 592.36 438.98"/>
      <polygon class="cls-41" points="564.41 466.89 452.76 469.12 559.05 472.24 564.41 466.89"/>
      <polygon class="cls-41" points="576.2 455.22 522.71 457.28 572 459.27 576.2 455.22"/>
      <polygon class="cls-12" points="136.15 480.76 196.54 420.37 610.93 420.37 550.5 480.8 136.15 480.76"/>
      <line class="cls-20" x1="550.5" y1="529.93" x2="550.5" y2="480.8"/>
      <polygon class="cls-20" points="610.93 529.93 610.93 420.37 550.5 480.8 136.15 480.76 136.15 529.93 153.76 529.93 153.76 491.89 532.82 491.93 532.82 529.93 562.09 529.93 561.97 480.8 599.56 442.95 599.56 529.93 610.93 529.93"/>
      <polygon class="cls-63" points="581.73 529.93 599.56 529.93 599.56 442.95 581.73 460.7 581.73 529.93"/>
      <polygon class="cls-20" points="581.73 529.93 599.56 529.93 599.56 442.95 581.73 460.91 581.73 529.93"/>
      <path class="cls-63" d="M202.2,491.93v38h11.9l-.03-38h-11.86Z"/>
      <path class="cls-63" d="M184.37,491.93v38h17.83v-38h-17.83Z"/>
      <path class="cls-20" d="M184.37,491.93v38h17.83v-38h-17.83Z"/>
      <polygon class="cls-63" points="153.76 529.93 165.35 529.93 165.23 491.93 153.76 492.02 153.76 529.93"/>
      <polygon class="cls-20" points="153.76 529.93 165.35 529.93 165.23 491.93 153.76 492.02 153.76 529.93"/>
      <path class="cls-20" d="M202.2,491.93v38h11.9l-.03-38h-11.86Z"/>
    </g>
    <g id="PERRO">
      <g id="COLA">
        <path class="cls-69" d="M263.78,342.28c4-4.99,8.8-7.37,13.5-8.81-2.28-1.88-4.48-3.02-6.57-3.18,0,0,2.5-1.76,1.78-2.79s-5.3,1.38-5.86.91c-1.16-.96-3.63-7.36-4.52-6.76-.43.29-.42,5.34-.65,4.49-.43-1.56-3.82-4.59-3.56-4.01.48,1.04-.68,10.39-1.52,9.67-1.11-.95-4.39-5.92-6.57-5.39-.34.08,2.99,8.84,2.03,7.96-.9-.83-4.69-2.77-7.08-1.09l5.88,10.43c-1.46-2.62-8.55-2.93-10.94.18-.44.57,7.95,2.97,6.4,3.4-6.42,1.75-7.17,6.23-6.19,6.22,2.61-.04,5.41-.75,7.14,1.9.4.62-4.04,1.75-2.79,7.77.21,1.02,3.71-2.1,4.04-1.71.26.31-1.1,3.43-.48,3.94s3.24-1.57,3.56-1.31c3.78,3.04,11.99,4.07,13.47,3.92l5.96-7.39c-9.26-2.74-12.85-9.84-7.02-18.34Z"/>
        <path class="cls-47" d="M263.78,342.28c3.95-4.92,8.67-7.31,13.31-8.75-4.42.56-9.13,2.07-11.68-2.17-1,1,0,3-2,3,0-1-1-2-2-2-2,1-1,4-1,6-1-1-4-1-4-3-3,3,0,6-1,9,0-1.86-1.74-.25-2.78-.84,2.72,2,1.84,4.92,3.78,7.84-2,0-2,3-4,2,0,2,1,3,3,4,1,1-1,3-1,4,4.24.85,8.49,3.13,12.73,3.8l3.66-4.54c-9.26-2.74-12.85-9.84-7.02-18.34Z"/>
        <path d="M267.21,359.11c-3.07-.7-5.34-3.43-6.21-6.39-1.84-6.29,2.65-12.58,7.88-15.63,2.64-1.61,5.5-2.72,8.4-3.62-2.73,1.28-5.5,2.56-7.99,4.27-4.79,3.19-8.95,8.81-7.56,14.78.67,2.87,2.65,5.52,5.47,6.59h0Z"/>
        <path d="M276.94,332.99c-2-1.03-4.1-2.36-6.38-2.21-.45.05-.7-.55-.37-.84.77-.76,1.41-1.65,1.88-2.63l.37.64c-1.79-.23-3.6-.06-5.36.45,1.59-1.03,3.55-1.48,5.45-1.35.25.02.43.23.42.48-.39,1.19-1.17,2.26-2.08,3.13,0,0-.37-.84-.37-.84,2.58-.12,4.71,1.51,6.44,3.18h0Z"/>
        <path d="M265.86,329.1c.25-.68,0-1.38-.3-1.99-.98-1.85-2.16-3.62-3.53-5.2,0,0,.57.09.57.09-.27.18-.2,1.55-.25,1.92-.03.4-.09,1.41-.12,1.8.02.58-.8,1.34-1.24.6-.6-1.47-1.82-2.94-3.03-3.77.12-.04.12-.2.1-.03-.2,2.85.54,6.11-1.18,8.64,1.18-2.63.36-5.44.3-8.2.03-.28-.05-.57.08-.87.36-.75,1.28-.33,1.68.04,1.29.98,2.33,2.31,2.96,3.82,0,0-.54-.29-.54-.29-.09.01-.15.1-.14.08,0,0,.02-.06.03-.13.12-1.13.12-2.49.36-3.61.07-.37.66-1.12,1.09-.63,1.3,1.73,2.39,3.6,3.14,5.62.24.66.4,1.48.01,2.11h0Z"/>
        <path d="M255.82,331.81c-1.16-2.76-3.73-4.87-6.65-5.39,0,0,.4-.54.4-.54,1.54,2.69,2.48,5.73,2.8,8.82.06.47-.58.74-.87.37-.99-1.15-2.48-1.89-4.03-2-.82-.09-1.9.07-2.59.35.01-.07-.02,0,.07.15,2.11,3.1,4.01,6.38,5.43,9.86-1.86-3.29-3.89-6.41-6.17-9.43-.17-.28-.29-.69-.07-1.03.29-.4.58-.41.76-.5,2.55-.92,5.59-.12,7.36,1.96,0,0-.87.37-.87.37-.28-2.98-1.14-5.89-2.47-8.59-.14-.26.12-.6.41-.52,3.05.7,5.68,3.11,6.5,6.12h0Z"/>
        <path d="M250.74,343.84c-2.99-3.46-8.03-1.8-11.14.65,0,0-.18-.81-.18-.81,2.73.43,5.33,1.69,7.37,3.56.36.31.06.93-.4.85-3.16-.51-6.24,2.18-6.17,5.4,0,0-.38-.3-.38-.3,2.46-.42,5.05.28,6.92,1.81-2.05-1.28-4.54-1.68-6.8-1.18-.17.04-.33-.07-.37-.24-.38-3.73,3.22-7.07,6.94-6.46,0,0-.4.85-.4.85-1.92-1.73-4.33-2.91-6.87-3.4-.24-.05-.4-.28-.35-.52,2.96-2.82,9.2-4.2,11.84-.2h0Z"/>
        <path d="M246.88,355.69c-2.04,1.74-2.85,4.65-2.25,7.21.03.17.1.34.09.3-.02-.02-.09-.06-.14-.05-.05,0-.02,0,.01-.03.76-1.12,4.57-3.82,4.42-.85-.15.79-.56,2.45-.73,3.24,0,0-.68-.52-.68-.52l2.31-1.16c.33-.14.73-.44,1.17-.32.18.05.31.13.41.21,1.61,1.29,3.23,3.06,5.46,2.98-2.22.49-4.18-1.2-5.88-2.38-.23-.18-.46.09-.78.25,0,0-2.25,1.26-2.25,1.26-.34.21-.79-.14-.68-.52,0,0,.45-2.14.45-2.14.02-.16.29-1.17.21-1.3-.01.01.1.05.04.04-1.15.27-2.08,1.04-2.89,1.91-.11.08-.24.18-.47.22-.87.07-.93-.97-.98-1.53-.23-2.57.86-5.5,3.16-6.81h0Z"/>
        <path class="cls-24" d="M252.63,343.52c-.07-.05-.14-.11-.22-.16.07.07.14.12.22.16Z"/>
        <path class="cls-48" d="M260.45,357.2c-2.94,1.51-8.12-3.27-8.76-6,1.14,1.47,2.66,2.5,4.05,3.69,1.42,1.14,2.77,2.34,4.71,2.31h0Z"/>
        <path class="cls-48" d="M258.91,348.46c-1.33-.03-3.79-1.86-2.78-3.27.11.42.33.63.55.85.83.72,1.61,1.39,2.23,2.42h0Z"/>
        <path class="cls-48" d="M260.24,342.17c-3.07-1.15-4.86-6.24-2.44-8.73-.91,3.06.42,6.39,2.44,8.73h0Z"/>
        <path class="cls-48" d="M264.46,337.26c-1.05-.3-1.43-1.56-.71-2.38.71.83.84,1.3.71,2.38h0Z"/>
      </g>
      <g id="PATA_TRASERA_D" data-name="PATA TRASERA D">
        <path class="cls-40" d="M286.29,396.77s6.41,14.2-1.91,22.29c0,0,5.94,4.7-1.62,13.04,0,0,5.81,6.91,26.65,3.59,0,0,4.14-4.61-3.56-6.92,0,0-1.52-.56-5.52-.27,0,0-3.53-11.14,2.36-16.12,5.89-4.98,13.11-11.31,14.51-17.58s-12.27-15.4-18.09-15.92c-5.82-.52-12.81,17.89-12.81,17.89Z"/>
        <path d="M287.55,402.15c2.56,4.95,1.86,11.84-2.48,15.6,3.1-4.6,3.62-10.26,2.48-15.6h0Z"/>
        <path d="M284.05,419.76c3.66,2.04,3.37,7.44.51,10.08-.4.37-.81.71-1.24,1.03.27-.47.58-.89.86-1.33,1.97-2.93,2.32-7-.13-9.78h0Z"/>
        <path d="M285.07,434.22c6.06,1.46,12.33,2.2,18.55,1.8,2.07-.11,4.1-.46,6.12-.89,0,0-.29.22-.29.22,1.07-1.89.89-4.52-1.3-5.53-2.04-1.07-4.47-1.19-6.75-1.31,2.36-.16,4.81-.26,7.04.77,2.61,1.04,3.09,4.22,1.82,6.53-.06.12-.17.2-.29.22-2.06.49-4.16.86-6.28.97-6.3.37-12.7-.61-18.62-2.79h0Z"/>
        <path d="M299.94,426.93c-1.82-4.82-1.9-11.25,2.33-14.85,1.73-1.22,3.43-2.52,5.01-3.94,1.8-1.61,3.5-3.35,5.2-5.12-1.37,2.03-2.95,3.91-4.67,5.67-1.46,1.54-3.17,2.9-4.9,4.14-3.93,3.42-3.92,9.29-2.98,14.1h0Z"/>
      </g>
      <g id="PATA_DELANTERA_D" data-name="PATA DELANTERA D">
        <path class="cls-40" d="M383.14,380.39s12.39-4.87,15.94,7.75,17.48,38.57,23.24,38.79c5.76.23,12.1-.31,11.86,4.43s-5.15,6.36-17.05,2.42c-1.74-.58-5.88-2.73-7.55-3.42-.74-.3-.34,5.18-2.16,4.08-1.15-.69,1.1-1.55-.25-5.87-.07-.23-4.67-3.08-4.71-2.51-.26,3.57-2.11,9.4-2.84,8.87-.77-.57-.79-3.39-.63-4.56.48-3.43-.81-7.48-2.9-8.38,0,0-6.46-3.42-9.93-11.3-.45-1.01-1.97-1.98-2.39,1.37-.68,5.42-6.92-5.35-7.96-13.1-2.22-16.55,7.33-18.55,7.33-18.55Z"/>
        <path d="M399.08,388.14c2.94,6.95,5.97,13.89,9.52,20.55,3.02,5.82,6.45,11.55,10.96,16.35.7.62,1.4,1.25,2.1,1.9-10.82-7.48-18.65-26.45-22.59-38.79h0Z"/>
        <path d="M423.85,426.93c2.77.07,5.66-.4,8.29.92,2.94,1.2,3.63,6.1.46,7.45-2.74,1.13-5.64.76-8.45.34-2.75-.47-5.44-1.18-8.03-2.16,3.91.67,14.83,3.49,17.33-.23.74-1.67.03-3.86-1.68-4.73-2.35-1.38-5.32-1.13-7.93-1.6h0Z"/>
        <path d="M410.29,426.93c.09,2.85-.8,5.75-2.52,8.03-.16.22-.47.27-.69.11-.16-.12-.23-.31-.2-.49.39-2.11.46-4.36-.04-6.47-.16-.71-.45-1.38-.78-2.06.52.54.93,1.2,1.26,1.9.9,2.15.97,4.54.54,6.81,0,0-.88-.41-.88-.41,1.66-2.16,2.65-4.76,3.31-7.42h0Z"/>
        <path d="M402.92,423.9c.31,2.96-.07,9.2-2.97,10.76.67-.7.86-1.61,1.12-2.49.69-2.75,1.04-5.5,1.85-8.27h0Z"/>
        <path d="M399.21,434.22c-.44-4.52-.49-9.48-3.99-12.78,4.53,2.18,5.04,8.42,3.99,12.78h0Z"/>
        <path d="M394.48,420.59c-4.31-1.37-7.22-5.68-8.31-9.91,2.41,3.68,4.72,7.3,8.31,9.91h0Z"/>
        <path d="M385.47,408.27c-.95,1.94-1.93,4.11-1.86,6.27-.29,1.6-3.14-2.74-3.43-3.18-2.34-3.76-3.75-8.05-4.36-12.42.27.68.5,1.37.75,2.06,1.79,4.63,3.61,9.53,6.93,13.28,0,0-.59.29-.59.29.08-2.37,1.27-4.42,2.57-6.3h0Z"/>
      </g>
      <g>
        <polygon class="cls-30" points="344.09 335.34 348.85 336.48 346.63 344.85 344.02 344.74 337.33 343.95 335.02 338.44 344.09 335.34"/>
        <path class="cls-32" d="M370.21,313.23l11.32,21.51-34.33,11.37s-3.36-1.03-3.17-1.37c.9-1.64,2.56-1.41,2-7.54-.36-3.9-2.47-4.94-7.57-6.21-9.04-2.25-9.88,2.02-9.88,2.02l-3.01,1s-2.09-6.66,12.56-11.98c14.12-5.13,32.09-8.8,32.09-8.8Z"/>
        <path class="cls-11" d="M328.24,333.13c2.15-2.86,7.29-3.19,10.94-2.08s11.07,4.95,4.84,13.7"/>
        <path class="cls-11" d="M325.47,333.17c-.77-4.54,4.46-7.76,8-9.34,5.41-2.42,30.82-10.67,36.74-10.6"/>
        <line class="cls-11" x1="347.19" y1="346.11" x2="381.53" y2="334.74"/>
      </g>
      <g id="TORSO">
        <path class="cls-53" d="M340.24,345.19l13.86-2.91c16.21-1.22,28.18,2.06,35.34,10.44l8.02,2.91-3.33,2.33,6.89,2.59c2.41,4.23,2.56,8.23.16,11.96,1.5,1.59,2.31,4.2,2.41,7.88-1.14-1.55-2.27-2.09-3.38-1.88.75,8.23-2.4,11.96-7.04,13.96,1.49-3.3,1.05-6.54-2.69-10.25.39,7.93-2.04,13.06-8.62,14.02-12.53,4.97-26.7,6.58-42.01,5.86-14.52-2.14-35.22-.7-37.99-9.63-12.39,2.53-28.14-2.89-40.1-12.01-5.75-5.55-1.96-14.42,4.65-19.28,10.07-8.98,21.03-12.87,32.59-13.21,13.55-3.17,27.3-4.03,41.25-2.79Z"/>
        <path class="cls-53" d="M310.83,382.69c-.49.18-.97.39-1.42.67.53,0,.98-.28,1.42-.67Z"/>
        <path class="cls-69" d="M259.41,373.36c12.22,28.26,39.07,8.74,38.74,8.74,6.61,0,9.26-4.74,17.26-1.74-2.21-.74-3.34,1.24-4.58,2.33,4.84-1.83,11.03.3,15.58-3.33,0,2-1,3-2,5,9,0,16-2,24-6l-2,2c8,1,14-5,21-8,1,0,1,2,1,3,4-1,5-4,6-7,1,1,1,2,1,3,5-2,3-11,9-7-1-4-1-7-4-10,1,0,2,0,3,1,0-6.13-5.36-8.42-8.71-11.58-5.82-1.61-12.7-2.09-20.59-1.5l-13.86,2.91c-13.95-1.25-27.7-.39-41.25,2.79-11.56.34-22.51,4.01-32.59,12.99-10.59,8.48-7.18,12.57-7,12.39Z"/>
        <path class="cls-47" d="M271.54,365.35c2.61-3.06,8.61-7.97,12.84-7.91-2,2-.83,4.68,1.33,8.6,4.09-7.56,9.59-13.36,20.59-13.36-2,2-3.99,6.9-3.78,9.12,4.36-6.25,13.93-7.39,20.93-9.39-1,2-.69,5.25-.69,7.25,6-8,24.65-11.3,31.65-17.3v-.1c-.1,0-.2.01-.3.02l-13.86,2.91c-13.95-1.25-27.7-.39-41.25,2.79-10.86.32-21.17,3.58-30.73,11.41,1.72-.4,3.43-.88,5.15-2.03-2,3-2.18,4.4-1.87,7.99Z"/>
        <path d="M390.8,353.99c2.21.63,4.35,1.22,6.63,1.19.27-.02.51.18.5.45-.15.61-1.26.94-1.78,1.27-.55.26-1.14.49-1.75.53.89-.54,1.97-1.51,2.78-2.16,0,0,.31.81.31.81-2.4.27-4.89-.52-6.71-2.09h0Z"/>
        <path d="M392.33,356.78c2.74,1.58,5.71,2.66,8.79,3.29.14.03.25.11.32.22,1.51,2.63,2.26,5.78,1.6,8.77-.21.99-.64,1.91-1.15,2.75.29-.94.58-1.87.63-2.83.25-2.83-.58-5.71-1.92-8.17,0,0,.32.22.32.22-3.15-.69-6.21-2.06-8.59-4.25h0Z"/>
        <path d="M393.75,366.23c5.63,2.24,10.89,7.75,10.12,14.19-.02.27-.4.35-.53.12-.51-.9-1.36-1.7-2.44-1.9,1.16-.05,2.24.68,2.92,1.6,0,0-.53.13-.53.13,0-6.18-4.75-10.87-9.56-14.14h0Z"/>
        <path d="M393.31,370.94c4.35,2.74,8.61,7.64,7.63,13.17-.74,4.08-3.59,8.45-8.12,8.73-.32.03-.5-.41-.25-.62,1.92-1.93,1.11-5.11.25-7.39,1.3,2.36,2.3,5.68.23,7.93,0,0-.23-.64-.23-.64,3.71-.46,6.08-4.02,7-7.38,1.48-5.46-2.52-10.48-6.51-13.8h0Z"/>
        <path d="M266.41,361.19c8.71-8.28,20.49-13.63,32.59-13.68,9.57-2.2,20.66-3.28,30.89-3.21,3.29.04,7.45.22,10.27.63,4.23-1.19,8.55-2.73,12.99-2.62-4.46.11-8.7,1.9-12.92,3.15-3.43-.31-6.88-.42-10.34-.36-10.36.1-20.75,1.22-30.89,3.34-11.95,0-23.57,5.04-32.58,12.75h0Z"/>
        <path d="M388.9,375.69c2.79,6.33,3.78,16.69-3.95,19.86-1,.4-2.05.59-3.09.7,9.59-2.24,8.86-12.94,7.04-20.55h0Z"/>
        <path d="M383.14,387.5c.99,4.74-3.08,9.48-7.85,9.71.51-.29,1.03-.49,1.52-.76,3.54-1.73,5.78-4.98,6.33-8.95h0Z"/>
        <path class="cls-38" d="M339.85,402.1c-3.63.53-7.31.2-10.79-.97,3.67-.2,7.21.13,10.79.97h0Z"/>
        <path class="cls-48" d="M301.09,350.89c-1.81.78-4.48,1.83-6.19,2.72-.96.5-1.84,1.13-2.34,2.01-.52.87-.45,2.04-.42,3.19-2.59-5.45,4.88-7.62,8.95-7.91h0Z"/>
        <path class="cls-38" d="M335.24,388.14c-.03,1.89-.42,3.81-1.47,5.45-.41.57-.99.98-1.53,1.31-2.13,1.17-4.64,2.48-7.13,1.85,1.24-.1,2.37-.49,3.45-.99,1.48-.82,3.29-1.51,4.46-2.74,1.03-1.42,1.61-3.19,2.22-4.87h0Z"/>
        <path class="cls-38" d="M323.51,391.73c-.66,3.76-3.53,6.62-7.51,6.14,1.55-.65,3.17-1.06,4.39-2.21,1.19-1.06,2.03-2.53,3.12-3.92h0Z"/>
        <path class="cls-38" d="M321.47,385.53c-.18,2.94-1.31,6.02-3.74,7.88-2.4,1.64-5.39,3.12-8.33,2.52,2.81-.18,5.46-1.76,7.71-3.3,2.22-1.67,3.4-4.35,4.36-7.09h0Z"/>
        <path class="cls-38" d="M301.86,391.19c3.4-.98,7.56-1.04,9.58-4.39-.74,4.19-6.08,4.92-9.58,4.39h0Z"/>
        <path class="cls-38" d="M304.41,387.25l1.75-2.1c.59-.67,1.16-1.38,1.99-1.95-.16,1-.61,1.85-1.23,2.6-.63.72-1.49,1.37-2.51,1.45,0,0,1.02-.08,0,0Z"/>
        <path class="cls-48" d="M284.38,353.79c-4.17,5.49-4.29,8.97-3.01,15.53-2.82-5.7-2.19-11.51,3.01-15.53h0Z"/>
        <path class="cls-48" d="M272.85,365.13c-.84,5.25.04,10.35,2.57,15.03-3.75-3.79-4.84-10.2-2.57-15.03h0Z"/>
        <path class="cls-48" d="M335.75,350.77c-1.96.21-4.82.43-6.72.78-1.06.2-2.09.54-2.83,1.23-.75.68-1.03,1.82-1.34,2.92-.88-5.97,6.91-5.85,10.89-4.93h0Z"/>
        <path class="cls-48" d="M324.08,347.51c-5.62,4.05-6.72,7.28-7.45,13.96-1.02-6.28,1.29-11.64,7.45-13.96h0Z"/>
        <path class="cls-48" d="M312.64,350.93c-2.35,4.77-3.01,9.91-1.96,15.12-2.47-4.73-1.63-11.17,1.96-15.12h0Z"/>
        <path class="cls-48" d="M266.69,364.09c-1.15,2.39-1.91,4.46-2.62,7.01-.76-2.54.39-5.59,2.62-7.01h0Z"/>
      </g>
      <g id="PATA_TRASERA_I" data-name="PATA TRASERA I">
        <path class="cls-40" d="M240.95,401.83s8.93,7.46-11.28,12.13l-5.69,12.97-4.05,6.84,2.11.78-2.89,2.91,7.53-2.7s-.23,2.69,5.48,3.38,16.76-.51,16.76-.51c0,0,1.6-6.7-6-6.53l-2.32-.39s-1.41-7.58,4.27-11.56c5.68-3.98,11.87-5.15,14.68-5.35s8.94-2.21,21.59-13.7v3.64s16.1-10.43,18.38-19.89-10.29,8.37-24.85,2.11c-20.66-8.88-9.41-20.91-13.85-18.91-5.62,4.04-12.08,13.09-13.14,18.16,0,0-.91,3.9-6.5,7.3l3.43.59s-4.2,5-7.94,6.75c1.17,1.52,2.65,2,4.29,1.97Z"/>
        <path class="cls-49" d="M241.44,392.35c-.09.06-.17.12-.27.17l3.43.59s-4.2,5-7.94,6.75c.55.71,1.16,1.18,1.83,1.49h1.91c2,0,9.48.22,11.48.22-1,1-3.7,3.13-4.7,3.13,5,0,12.99-1.91,15.48-2.44-.35.96-5.04,4.55-6.04,4.55,8,0,13.78-1.46,21.78-4.46h.07c.89-.71,1.78-1.45,2.66-2.25v3.64s10.7-6.93,15.89-14.62c-8.92,1.63-42.28,1.63-55.58,3.22Z"/>
        <path class="cls-69" d="M275.42,384.18c-20.66-8.88-10.16-19.13-14.6-17.12-5.62,4.04-12.08,13.09-13.14,18.16,0,0-.89,3.77-6.23,7.13,4.99.83,9.98,1.44,14.96,0-.72,1.31-4.04,2.66-5.22,3.43,3.92.81,13.11-2.17,13.78-2.17.13-.19-2.3,3.81-3.22,3.67,8.09.33,13.3-4.3,16.5-3.52-.28,2.22-2.19,2.68-2.61,3.59,7.43.56,15.72-4.48,21.37-8.23,1.18-1.74,2.07-3.52,2.5-5.27,2.28-9.46-9.54,6.58-24.1.33Z"/>
        <path d="M242,403.03c2.86,2.55.65,7.23-2.85,7.58.66-.48,1.23-.97,1.73-1.51,1.6-1.66,1.96-3.92,1.12-6.07h0Z"/>
        <path d="M236.52,411.62c-2.25.89-4.51,1.72-6.77,2.58l.15-.14-2.71,6.55c-.92,2.2-1.87,4.39-2.82,6.57,0,0-2.22,3.57-2.22,3.57l-2.29,3.53-.33-.7,2.75.38c.37.03.51.53.23.76-1.16,1-2.35,1.95-3.53,2.92l-.33-.57c2.61-.85,5.24-1.66,7.88-2.41-2.53,1.07-5.09,2.07-7.66,3.05-.17.07-.37-.02-.43-.19-.05-.14,0-.29.1-.38,1.13-1.03,2.25-2.07,3.41-3.07l.23.76-2.76-.33c-.25-.03-.43-.26-.4-.51,0-.07.03-.14.07-.19,0,0,2.22-3.57,2.22-3.57l2.28-3.53c.8-1.81,1.93-4.36,2.87-6.4,0,0,2.98-6.43,2.98-6.43,2.22-.94,4.75-1.47,7.09-2.23h0Z"/>
        <path d="M228.07,436.99c1.46,1,3.33,1.04,5.04,1.2,5.26.28,10.52-.41,15.74-1.03,0,0-.4.35-.4.35.67-2.43-.65-5.01-3.15-5.72-2.43-.84-5.2-.69-7.75-.53,2.62-.51,5.33-.86,7.97-.12,2.9.58,4.71,3.79,3.87,6.64-.04.19-.2.32-.38.34-5.27.72-10.64,1.25-15.95.6-1.71-.29-3.65-.53-4.99-1.73h0Z"/>
        <path d="M240.46,429.41c-1.23-7.07,5.03-12.93,11.49-14.37.94-.17,1.87-.37,2.8-.5-1.76.65-3.52,1.28-5.19,2.11-4.95,2.38-8.93,6.97-9.1,12.76h0Z"/>
        <path d="M260.87,413.81c5.69-2.31,10.46-6.38,15.26-10.12,1.59-1.29,3.14-2.61,4.69-3.94.2-.17.5-.15.68.05.08.09.12.2.12.31l.02,3.94-.74-.43c3.77-2.23,7.21-5.12,10.3-8.24,3.14-3.15,5.79-6.72,8.02-10.57-.95,2.01-2.02,3.99-3.29,5.83-3.81,5.57-8.79,10.29-14.54,13.84-.23.14-.53.07-.67-.16-.05-.08-.07-.17-.07-.27,0,0,.02-3.94.02-3.94l.79.36c-3.09,2.61-6.38,5.27-9.73,7.57-3.4,2.27-6.89,4.65-10.85,5.77h0Z"/>
        <path d="M260.82,367.06c-4.6,4.87-9.5,9.8-11.92,16.16-.47,1.25-.85,2.58-1.52,3.85-1.28,2.55-4.12,3.7-5.85,5.74,0,0-.15-.69-.15-.69.98.48,2.11.68,3.2.57.23-.02.44.15.46.38-1.84,2.9-5.25,5.32-8.28,6.96,0,0,.09-.21.09-.21.39,1.55,2.37,1.86,3.75,2.02-1.5,0-3.58-.24-4.11-1.92-.02-.08.02-.17.09-.21,2.96-1.79,5.6-4.11,7.7-6.86,0,0,.38.69.38.69-1.25.14-2.53-.07-3.67-.61-.22-.11-.32-.37-.21-.6,1.7-2.19,4.46-3.29,5.75-5.73,1.18-2.35,1.89-5.15,3.34-7.43,2.82-4.73,6.88-8.51,10.96-12.11h0Z"/>
      </g>
      <g id="PATA_DELANTERA_I" data-name="PATA DELANTERA I">
        <path class="cls-40" d="M369.52,385.76l5.73,2.38s-1.57,39.21,3.97,46.52c0,0,11.11-1.99,11.78,3.7s-7.53,4.62-10.27,4.14c0,0-7.69-1.27-13.9-5.01-.55-.33-1.6,4.17-2.11,3.8-.72-.51-.4-6.04-1.03-6.63-1.37-1.28-3.12-3.6-3.84-5.28-.4-.92-1.04,1.98-4.23,3.15-2.66.98,4.12-3.5.71-13.1-1.08-3.03-2.03-3.8-2.22-7.39-.06-1.15-3.34,2.04-3.56,1.14-.57-2.29,1.49-9.29,1.49-9.29-4.14,4.14-8.65,4.99-13.42,3.72,4.23-3.32,5.8-7.36,1.23-13.01.93-5.24,3.54-7.52,7.89-9.23,7-2.75,14.83-2.5,21.78.38Z"/>
        <path d="M375.15,391.36c-.08,7.08-.13,14.44.2,21.49.43,7.09.66,14.4,3.38,21.05-.77-1.35-1.62-3.48-2.1-4.98-3.15-12.22-2.79-25.1-1.48-37.56h0Z"/>
        <path d="M378.69,434.66c3.6-.39,9.79-1.58,12.51,1.62,1.61,2.54-.34,6.04-3.07,6.73-3.46.95-6.96.12-10.28-.8-3.28-.98-6.45-2.26-9.46-3.84,5.11,1.77,16.91,6.56,21.38,2.54,4.71-6.96-7.04-6.37-11.08-6.24h0Z"/>
        <path d="M367.16,434.22c.09,2.85-.8,5.75-2.52,8.03-.16.22-.47.27-.69.11-.17-.12-.24-.33-.19-.53.44-2.8-.15-5.79-1.33-8.37-.37-.91-.9-1.73-1.41-2.59.69.71,1.31,1.5,1.85,2.36,1.61,2.61,2.36,5.75,1.86,8.82,0,0-.88-.41-.88-.41,1.66-2.16,2.65-4.76,3.31-7.42h0Z"/>
        <path d="M360.63,426.93c.59,3.05-2.48,5.72-5.38,5.69,2.34-1.4,4.46-2.94,5.38-5.69h0Z"/>
        <path d="M354.91,432.31c1.73-4.69,1.85-9.69.9-14.56,2.34,4.49,2.14,10.45-.9,14.56h0Z"/>
        <path d="M339.85,394.61c4.86,3.86,3.35,9.73-.95,13.33,0,0-.14-.72-.14-.72,3.38.98,7.22.49,10.21-1.38,1-.62,1.92-1.38,2.73-2.24.35-.4,1.02.09.75.54-.76,1.42-1.28,3.08-1.52,4.69-.26,1.64-.25,3.32.06,4.96l-.57-.15c1.05-1,2.21-1.89,3.62-2.3.12-.03.25.04.28.16.1,1.98.41,4,1.22,5.86-.5-.87-.86-1.82-1.12-2.8-.26-.98-.45-1.97-.56-2.98l.3.21c-1.25.44-2.35,1.34-3.26,2.3-.17.19-.52.1-.57-.15-.82-3.43-.31-7.11,1.29-10.25,0,0,.75.55.75.55-3.37,3.9-9.01,5.33-13.91,3.81-.31-.09-.4-.51-.15-.72,4.25-3.35,5.78-8.62,1.52-12.7h0Z"/>
        <path class="cls-69" d="M369.43,368.66c4.05,4.57,6.23,10.76,5.94,16.86-.1,1.96-.47,3.99-1.7,5.52-.52.64-1.16,1.17-1.83,1.65-1.95,1.42-4.12,2.52-6.41,3.26.52-.91.76-1.98.66-3.03-4.34,1.66-8.97,2.57-13.61,2.68,1.33-.67,2.43-1.81,3.04-3.18-4.38,1.4-8.99,2.07-13.58,1.97,1.04-1.57,1.88-3.27,2.49-5.05-1.3,1.04-2.96,1.63-4.62,1.64-.4,0-.81-.03-1.17-.19-.42-.19-.75-.54-1.03-.91-1.9-2.48-2.28-5.79-2.29-8.92,0-2.79.26-5.67,1.58-8.12,1.12-2.07,2.93-3.68,4.73-5.21,1.43-1.21,2.93-2.42,4.72-2.98,1.34-.42,2.77-.45,4.18-.48,4.65-.09,9.46-.16,13.72,1.7,1.75.76,3.34,1.83,4.93,2.89"/>
        <path class="cls-48" d="M364.48,361.81c3.13,3.17,5.85,6.68,8.16,10.5,2.33,3.91,2.72,8.57,2.7,13,0,0-.56-3.27-.56-3.27-.83-7.84-6.06-13.92-10.3-20.24h0Z"/>
        <path class="cls-48" d="M355.85,367.94c5.44-.53,11.11,3.77,12.06,9.15-2.41-4.82-6.77-8.13-12.06-9.15h0Z"/>
      </g>
      <g id="MANO_I" data-name="MANO I">
        <path class="cls-25" d="M346.63,337.49c0-1.73-1.28-2.88-2.24-3.6s-2.37-1.82-3.51-2.2c-2.01-.68-5.67-1.54-7.79-1.41-4.83.3-3.74,3.26-9.63,4.44-3.21.64-8.44,2.55-10.81,4.2-1.85,1.3-5.78,5.43-6.96,7.36-2.21,3.63-4.45,10.22-5.39,14.36-.25,1.08,3.86,1.11,4.86,1.6.29.14-.11,5.13,0,5.43.14.37-.07.75,1.46.89,1.3.12,2.24-.46,2.48-.16.48.58.73-3.52,1.33-3.06.46.35-.86,7.85-.37,8.17,1.3.83,2.84.46,5.18.53.33.01.67,0,.95-.17.79-.47.57-1.62.53-2.53-.08-1.77-.63-9.75-.24-11.47.31-1.36,3.17-8.37,3.3-6.48.04.6-.07,8.65.28,9.14s-.09,7.8.48,7.6c.49-.17,5.39.28,5.5-.22.67-2.91-1.07-9.77-.25-14.65.73-4.39,1.96-6.87,4.83-10.27.25-.29.54-.6.92-.62.37-.02.69.22.96.47.86.79.65,1.74,1.08,2.82.67,1.67.3,7.39,2,7.96,1.3.44,6.33-.04,6.87-1.31s-1.6-6.68-2.12-7.96-1.33-2.41-1.97-3.63c-.29-.54-.54-1.18-.27-1.73.18-.36.55-.58.9-.77,2.63-1.46,5.91-3.31,7.25-2.56"/>
        <path class="cls-11" d="M319.79,336.07c2.25-.89,4.23-1.55,9.83-3.39"/>
        <path class="cls-11" d="M325.52,355.64c-.1,4.53-.12,8.58.61,13.06"/>
        <path class="cls-11" d="M337.69,342.49c2.47,3.48,4.16,7.5,4.93,11.69.02.12.04.24-.03.34-.07.11-.22.14-.35.16-2.22.32-4.43.63-6.65.95-.11.02-.23.03-.33-.02-.14-.07-.19-.23-.23-.38-.98-3.56-1.23-7.35-2.78-10.7"/>
        <path class="cls-11" d="M315.7,336.89c5.45-1.06,11.09-1.09,16.55-.1"/>
        <path class="cls-11" d="M300.31,361.37l4.53.92"/>
        <path class="cls-11" d="M305.7,368.41h3.22"/>
        <path class="cls-11" d="M310.14,373.87c2.09.11,4.17.23,6.26.34"/>
        <path class="cls-11" d="M321.01,370.24c1.68-.15,3.37-.12,5.04.1"/>
        <path class="cls-11" d="M314.61,337.21s-10.4,5.82-14.3,22.95"/>
        <path class="cls-11" d="M331.1,344.74s-4.09,3.24-5.05,9.57"/>
        <path class="cls-11" d="M305.27,367.28s-.96-5.38,3.13-17.21"/>
        <path class="cls-11" d="M310.14,372.68s-.73-11.45,2.52-20.26"/>
        <path class="cls-11" d="M317.01,373.53c.09-.42-2.43-15.66,2.91-21.57"/>
        <path class="cls-11" d="M319.92,351.96s-.5,9.62.42,17.38"/>
        <path class="cls-11" d="M338.46,341.12s2.7-2.47,7.3-3.96"/>
        <path class="cls-11" d="M328.24,333.13c2.15-2.86,7.29-3.19,10.94-2.08,2.56.78,6.98,2.91,7.23,7.13"/>
      </g>
      <g id="CUELLO">
        <path class="cls-50" d="M389.45,340.44s-5.11,2.72-2.53,11c0,0-10.77,1.17-16.75-2.28-5.98-3.45-14.92-9.93-14.92-9.93l3.77-14.26s16.7,14.73,30.43,15.47Z"/>
        <path class="cls-46" d="M383.78,353.92s-11.61,2.2-22.75-6.07c0,0-7.85-4.53-8.06-8.11s.97-4.94,2.96-3.09,7.14,8.9,17.15,11.64c10.01,2.74,13.1,0,13.1,0l.08-1.96s2.77-1.03,3.86.12,3.44,6.89-6.34,7.48Z"/>
        <path class="cls-36" d="M387.7,361.99c.07-.15-3.94-2.11-4.15-4.85s2.22-3.37,3.75-1.43c0,0,3.85-2.83,3.83,1.07-.01,2.54-3.43,5.21-3.43,5.21Z"/>
        <path d="M387.66,342.09c-.91,2.08-.96,4.02-1.31,6.2-1.1-1.94-.76-5.03,1.31-6.2h0Z"/>
        <path d="M386.92,346.39c4.04-2.07,5.7,1.58,4.12,5.01-.45.92-1.41,1.66-2.4,1.62.88-.39,1.42-1.13,1.69-1.93.34-1.35.73-3.74-.76-4.47-.73-.33-1.7-.23-2.65-.23h0Z"/>
        <path d="M389.45,348.28c-.63,3.28-6.36,3.44-9.03,3.53-2.08.05-4.15-.14-6.21-.36-6.17-1.63-12.04-4.74-16.38-9.46-.97-1.1-1.82-2.3-2.58-3.55,1.21,1.52,2.49,2.97,3.97,4.21,4.36,3.73,9.71,6.31,15.21,7.85,1.74.19,4.05.48,6,.52,2.59.03,8.08.25,9.02-2.75h0Z"/>
        <path d="M356.47,337.21c4.64,3.11,8.68,6.88,13.45,9.77-5.37-1.63-9.76-5.66-13.45-9.77h0Z"/>
        <path d="M372.35,348.28c4.9.81,9.71.93,14.57,0-4.45,2.3-10.1,2.17-14.57,0h0Z"/>
        <path d="M382.71,353.99c-9.37,1.8-18.86-2.79-25.76-8.88-.96-.93-1.91-1.87-2.83-2.83,1.08.8,2.09,1.65,3.15,2.45,7.31,5.42,16.14,9.77,25.45,9.26h0Z"/>
        <path d="M353.15,340.7c-.67-.94-.74-2.11-.57-3.22.13-.55.32-1.2.96-1.59.57-.38,1.31-.09,1.72.37-1.21-.16-1.51.37-1.69,1.42-.18.98-.3,2-.41,3.03h0Z"/>
        <path d="M387.7,361.99c-1.8-1.07-3.89-2.17-4.49-4.42-.75-3.17,2.47-4.74,4.48-2.17,0,0-.69-.09-.69-.09.96-.61,1.89-1.2,3.13-1.02.85.14,1.29,1,1.38,1.77.25,2.6-1.89,4.58-3.81,5.92h0ZM387.7,361.99c1.39-1.5,3.13-3.32,3-5.47-.07-2.12-1.9-1.24-3.12-.4-.22.15-.51.11-.67-.1-.54-.71-1.45-1.17-2.12-.83-.7.28-.93,1.33-.8,2.23.36,1.97,2.31,3.29,3.72,4.57h0Z"/>
      </g>
      <g id="OREJA_I" data-name="OREJA I">
        <path class="cls-40" d="M345.41,311.27c-6.99-2.82-11.29-7.04-7.61-15.46-2.34.74-4.03,2.43-4.89,5.35-1.26-6.85-.27-11.97,4.14-14.44-.67-1.61-2.71-.75-5.78,1.97.62-2.17,1.37-4.31,2.62-6.36-1.12-.18-2.35.19-3.65.96,1.01-6.98,5.22-7.57,9.91-7.22-1.22-1.9-2.98-2.85-5.13-3.15,2.26-3.38,2.05-7.66,0-12.62l22.37,9.94c4.25,1.29,6.32,5.6,7.66,10.9,0,0,6.2,11.68-3.78,22.6-9.98,10.92-15.87,7.53-15.87,7.53Z"/>
        <path class="cls-65" d="M355.47,284.04l2.63,7.3-4.51,6.17c-4.03-3.3-7.95-3.52-11.73,0l3.02-5.24-2.91.43c1.62-4.31,4.09-6.01,7.03-6.24-1.67-1.51-3.78-2.22-6.18-2.43,5.36-2.93,13.56-1.49,12.65,0Z"/>
        <path d="M341.23,309.58c-4.67-2.84-7.23-9.77-2.88-14-2.88,4.97-.63,10.05,2.88,14h0Z"/>
        <path d="M333.4,301.03c-.45-2.69,1.89-5.64,4.69-5.44-2.26,1.21-3.69,3.12-4.69,5.44h0Z"/>
        <path d="M333.4,301.03c-2.08-4.87-2.08-13.35,4.4-14.56-5.58,2.52-4.91,9.48-4.4,14.56h0Z"/>
        <path d="M336.9,286c-2.32-1.09-4.29,1.6-5.58,3.18-.21.29-.7.04-.59-.3.73-2.48,1.37-5.28,3.55-6.94,0,0,.2.9.2.9-.65-.04-1.38,0-2,.17-.64.16-1.17.48-1.4.96-.17.46-.88.36-.93-.12-.8-6.52,4.51-9.06,10.21-7.81-5.32-.35-9.97,1.51-9.25,7.64,0,0-.93-.12-.93-.12.8-1.61,2.8-1.8,4.39-1.69.27.02.46.26.44.53-.01.16-.11.3-.24.38-1.85,1.48-2.59,4.11-3.39,6.28,0,0-.59-.3-.59-.3,1.4-1.58,3.86-4.24,6.12-2.76h0Z"/>
        <path d="M340.35,276.04c-1.96-1.39-3.73-2.4-5.99-3.11,2.37-.76,5.18.81,5.99,3.11h0Z"/>
        <path d="M335.88,271.24c.96-1.65.63-3.66.34-5.45-.35-1.82-.88-3.63-1.54-5.35-.12-.28.19-.59.47-.47,5.27,2.21,10.5,4.5,15.71,6.86,0,0,5.2,2.36,5.2,2.36,2.11.78,4.35,2.45,5.83,4.36,1.53,1.9,2.43,4.24,2.8,6.63-.33-1.16-.68-2.3-1.24-3.35-1.57-3.15-4.42-5.7-7.73-6.86-3.09-1.36-7.43-3.21-10.46-4.58-3.46-1.59-6.95-3.11-10.38-4.75l.49-.46c.87,2.71,1.58,5.52,1.4,8.39-.07.94-.28,1.93-.88,2.67h0Z"/>
        <path d="M358.1,291.35c-1.82-4.43-3.45-9.18-4.89-13.73-.94-3.68-4.11-6.46-7.49-7.98,0,0-1.54-.64-1.54-.64,4.43.75,8.9,4.01,9.97,8.31,1.45,4.55,2.88,9.37,3.95,14.03h0Z"/>
        <path class="cls-38" d="M352.21,296.71c-3.24-2.93-7.71-1.09-10.33,1.68,0,0-2.3,2.23-2.3,2.23,1.62-2.89,3.36-6.02,5.04-8.86,0,0,.53.71.53.71-.62.13-3.36.73-3.93.85,1.22-2.79,3.07-5.94,6.22-6.73.95-.21,1.94-.04,2.77.38-.89-.29-1.83-.34-2.69-.06-2.6.92-4.09,3.59-5.14,5.97,0,0-.51-.59-.51-.59l3.06-.75,1.08-.27-.55.98c-1.14,2.02-2.31,4.03-3.49,6.03l-.73-.58c2.77-2.84,8.05-4.55,10.97-.99h0Z"/>
        <path class="cls-38" d="M349.18,286.62c-2.62-1.93-6.06-1.65-9.13-1.62,3.52-1.6,7.32-3.16,11.26-2.99,1.04.08,2.12.28,2.99.87-3.94-1.1-8.02.75-11.69,2.05,0,0-.21-.93-.21-.93,2.44,0,5.19.64,6.79,2.61h0Z"/>
      </g>
      <g id="OREJA_D" data-name="OREJA D">
        <path class="cls-40" d="M383.45,257.27l2.5-5.35s2.43,4.37,4.69,4.76l-2.51,3.62c3.4.37,5.72,2.24,6.79,5.87l-4.06.12c1.67.55,3.24,2.67,4.8,5-.27.46-4.07-3.5-5.96-1.06-.39.5,7.48,1.2,2.52,7.77l-6.28-.91-2.5-19.83Z"/>
        <path class="cls-40" d="M370.17,277.49l3.76-11.31c3.75-6.52,7.68-11.82,11.9-15.04l-.43,15.56,3.56,9.99s.24,5.56-9.28,4.81-9.51-4.01-9.51-4.01Z"/>
        <path d="M372.78,268.46c2.12-5.06,5.08-9.79,8.76-13.87,1.22-1.37,2.58-2.63,3.98-3.83.35-.32.93.07.78.51-1.81,7.71-1.3,16.01,1.57,23.4-3.69-7.23-4.36-15.8-2.51-23.67,0,0,.78.51.78.51-5.6,4.6-9.87,10.61-13.36,16.93h0Z"/>
        <path d="M389.53,270.45c1.84-1.93,4.79,0,6.57,1.13,0,0-.35.32-.35.32-1.36-1.91-2.83-4.29-5.08-5.13-.25-.1-.38-.38-.28-.63.06-.14.17-.24.3-.29.77-.24,1.51-.38,2.32-.37.78,0,1.69.24,2.26.95l-.62.25c-.25-3.51-2.98-6.32-6.61-6.06,2.64-.34,5.35,1,6.48,3.46.4.8.68,1.62.83,2.53.03.19-.1.36-.28.39-.13.02-.25-.04-.33-.14-.4-.43-1.04-.58-1.71-.54-.66.03-1.36.21-1.97.45l-.05-.95c2.5,1.09,3.8,3.63,5.16,5.82.07.12.03.27-.09.34-.09.05-.19.04-.27-.02-.93-.72-1.91-1.39-3-1.84-1.04-.39-2.46-.64-3.28.32h0Z"/>
        <path d="M387.61,261.48c-.28-1.95,1.08-4.08,3.04-4.48-1.15,1.63-1.9,2.85-3.04,4.48h0Z"/>
        <path d="M389.87,256.29c-2.04-.06-3.36-2.29-3.47-4.16,1.44,1.32,2.11,2.83,3.47,4.16h0Z"/>
        <path d="M372.31,269.74c-.15,2.24-.9,4.18-1.86,6.16-.4-2.23.44-4.45,1.86-6.16h0Z"/>
      </g>
      <g id="CARA">
        <path class="cls-50" d="M368.76,334.84s-1.12,1.2-.84,5.95c0,0-12.05-2.07-13.73-11.25l-1.37,4.99s-1.19-5.26-7.4-12.69l-3.2-6.42,2.04-1.1-5.99-1.98,4.56-1.33c2.95-1.16,5.26-2.84,7.02-4.98,2.08-2.55,3.29-5.76,3.89-9.42l1.38-5.21c2.96-9.74,7.58-17.35,21.07-13.56,0,0,3.17-5,13.05-1.48.15.05,2.98.51,3.27.65,0,0,9.54-5.34,16.24,4.76-3.37-.2-7.56-.04-9.31,2.12,0,0,6.03-.71,7.94,4.5-2.61-1.05-5.35-.76-8.17.58,0,0,2.36,2.01,2.31,5.4,0,0,.24,1.13,5.09,3.21,0,0,12.6-.63,11.99,12.34l-3.3-2.93s4.16,7.05,0,12.15c0,0-1.05-5.1-2.68-5.87,0,0,2.26,5.82-1.25,12.61,0,0-4.92,6.9-4.46,10.28s1.8,4.29,1.8,4.29l-8.38-.87s.84,2.51,2.07,2.91c0,0-9.95,2.47-20.95-2.81l1.26,1.76s-3.11.79-13.95-6.6Z"/>
        <path class="cls-56" d="M382.41,299.76c-3.32.19-6.66.13-9.97-.17-.3-.03-.61-.06-.87-.19-.28-.14-.5-.39-.7-.64-.77-.95-1.46-1.99-1.8-3.16s-.32-2.49.27-3.56c.45-.81,1.18-1.43,1.92-1.99.73-.54,1.49-1.05,2.35-1.35,2.4-.84,5.19.13,6.92,1.99s2.5,4.45,2.62,6.99c.03.7-.02,1.5-.56,1.96"/>
        <g>
          <path class="cls-54" d="M373.67,296.05c0,2.32,2.94,4.25,5.29,4.24s3.24-1.93,3.23-4.26c0-2.32-1.92-4.2-4.27-4.2s-4.26,1.89-4.26,4.21Z"/>
          <ellipse cx="379.47" cy="296.66" rx="2.73" ry="3.14" transform="translate(-.61 .79) rotate(-.12)"/>
          <path d="M382.33,295.82s-.85-7.13-7.07-3.05c0,0,5.91-2.36,6.01,3.08l1.07-.03"/>
          <path d="M382.33,295.82s2.38,7.7-6.57,3.65c0,0,7.91,2.53,5.5-3.62l1.07-.03Z"/>
          <path class="cls-59" d="M377.69,295.7s-1.66-.01-1.5-.74,1.57-.41,1.57-.41c0,0,1.19.15,1.1.79,0,0-.08.55-1.18.36Z"/>
        </g>
        <path class="cls-50" d="M387.31,299.73s-9.89-1.2-14.36.4c0,0,1.47,4.64,8.32,4.67s7.4-5.07,6.05-5.07Z"/>
        <path class="cls-56" d="M395.26,298.34c-.3-.03-.61-.06-.87-.19-.28-.14-.5-.37-.7-.61-.77-.91-1.46-1.91-1.8-3.03s-.32-2.38.27-3.4c.45-.78,1.18-1.37,1.92-1.9.73-.52,1.49-1.01,2.35-1.29,2.4-.81,4.52-.58,6.33,1.81,1.49,1.97,2.33,4.6,2.45,7.02.03.67-3.2,1.9-6.22,2.08"/>
        <g>
          <path class="cls-54" d="M393.64,295.53c0,2.17,2.4,3.97,4.32,3.96s2.64-1.81,2.64-3.98c0-2.17-1.56-3.93-3.49-3.92s-3.48,1.76-3.47,3.93Z"/>
          <ellipse cx="398.37" cy="296.1" rx="2.23" ry="2.93" transform="translate(-.31 .42) rotate(-.06)"/>
          <path d="M400.71,295.32s-.7-6.66-5.77-2.85c0,0,4.83-2.21,4.9,2.88l.87-.03"/>
          <path d="M400.71,295.32s1.94,7.19-5.36,3.41c0,0,6.46,2.36,4.49-3.38l.87-.03Z"/>
          <path class="cls-59" d="M396.92,295.2s-1.36-.01-1.22-.69,1.29-.38,1.29-.38c0,0,.97.14.9.73,0,0-.07.51-.96.34Z"/>
        </g>
        <path d="M415.29,306.99c1.52.34,2.73,1.49,3.59,2.77,0,0-.62.13-.62.13-.02-.94-.02-2.53-.2-3.47-.61-5.46-5.08-8.53-10.38-8.62,3.18-.59,6.75.39,8.95,2.86,1.7,1.88,2.36,4.4,2.43,6.87-.03.81-.09,1.62-.14,2.42-.01.18-.17.32-.35.31-.12,0-.22-.08-.27-.18-.67-1.26-1.65-2.48-3.01-3.08h0Z"/>
        <path class="cls-38" d="M393.48,301.34c-1.69-.12-2.89-.17-4.52,0,.97-1.51,3.52-1.46,4.52,0h0Z"/>
        <path class="cls-38" d="M394.42,302.61c-.97-.12-1.62.45-2.38.93-.72.49-1.57,1.18-2.37,1.55.47-1.65,3.18-4.12,4.75-2.48h0Z"/>
        <path class="cls-38" d="M351.27,316.43c1.5,2.34,1.54,5.58.21,8-.04-2.74-.05-5.24-.21-8h0Z"/>
        <path d="M365.49,325.35c-.17,3.32,2.2,5.93,4.11,8.37,1.9,2.55,4.36,4.56,7.28,5.84,1.91.87,3.95,1.5,6.06,1.81l-.24.47c-1.06-1.25-1.86-2.76-2.22-4.36.59,1.5,1.52,2.84,2.64,3.98.11.11.1.29,0,.4-5.42.02-11.14-3.03-14.2-7.6-1.83-2.55-4.11-5.59-3.41-8.91h0Z"/>
        <path d="M384.34,340.78c5.93,1.64,11.96,1.35,18.04,1.44,0,0-.14.47-.14.47-.74-.64-1.37-1.41-1.71-2.31.54.78,1.22,1.42,2.01,1.89.22.13.11.48-.14.47-6,.64-12.55.89-18.07-1.96h0Z"/>
        <path d="M404.48,340.14c1.43-.15,2.84-.16,4.24-.13l-.35.72c-2.33-2.4-2.67-6.69-.43-9.21-1.16,2.91-.81,6.19,1.08,8.64.28.27.04.78-.35.72-1.41-.18-2.81-.38-4.2-.73h0Z"/>
        <path d="M408.73,281.77c-3.8-5.96-11.58-5.94-17.63-3.95-.9.29-1.8.6-2.72.87.83-.47,1.7-.88,2.55-1.33,5.96-2.89,14.96-2.58,17.8,4.41h0Z"/>
        <path d="M400.23,283.16c1.91-2.23,5.49-2.86,8.05-1.39-2.82-.04-5.41.39-8.05,1.39h0Z"/>
        <path class="cls-38" d="M392.4,293.29c-.67-3,.86-6.45,3.55-7.95-1.65,2.51-2.77,5.01-3.55,7.95h0Z"/>
        <path d="M396.26,285.03c2.62-2.36,6.82-1.62,9.43.42.58.38,2.98,2.82,1.83,3.4-.14.05-.29.03-.41-.04-1.41-.76-3.09-1.02-4.69-.91.77-.39,1.66-.59,2.55-.58.93.02,1.79.2,2.63.64,0,0-.71.58-.71.58-1.7-3.67-7.05-5.59-10.65-3.51h0Z"/>
        <path d="M415.29,306.99c2.96,3.48,3.38,9.17,0,12.53-.3.34-.88,0-.75-.42.1-.37.1-.94.02-1.44-.27-1.59-1.08-3.05-1.94-4.4.8.78,1.52,1.65,2.05,2.65.55,1.08.95,2.17.72,3.45,0,0-.75-.42-.75-.42,2.94-3.33,2.52-8.17.66-11.95h0Z"/>
        <path d="M413.03,315.69c1.05,5.2-.53,11.18-4.5,14.82,2.79-4.48,4.12-9.58,4.5-14.82h0Z"/>
        <path class="cls-38" d="M370.17,300.15c-8.75.78-11.86,8.42-11.79,16.25,0,1.09.04,2.18.02,3.28-.2-1.08-.34-2.17-.51-3.26-.95-8.1,3-16.86,12.28-16.27h0Z"/>
        <path class="cls-38" d="M362.79,312.77c-1.76,3.75-1.61,8.02-1.01,12.01.19,1.21.55,2.88.78,4.08-2.48-4.84-3.45-11.6.23-16.09h0Z"/>
        <path d="M346.05,323.1c2.68,2.91,5.4,5.94,6.93,9.64.21.67.43,1.23.24,1.96-.16.53-.99.28-.84-.24,0,0,.01-.05.01-.05l1.32-5.01c.11-.48.85-.46.95.02,1.49,6.12,7.43,9.84,13.29,11.12,0,0-.27.26-.27.26-.06-1.31-.12-2.63.09-3.93.1-.41.17-.91.54-1.17-.33.29-.34.78-.39,1.19-.1,1.29.07,2.58.24,3.86.02.15-.12.29-.27.26-4.7-.76-9.41-2.95-12.2-6.94-.98-1.31-1.53-2.87-1.98-4.43,0,0,.95.02.95.02l-1.42,4.98-.83-.29c.05-.93-.42-1.97-.82-2.85-1.48-3.01-3.55-5.7-5.54-8.4h0Z"/>
        <path d="M344.66,320.69c-1.07-1.64-2.01-3.34-2.87-5.08-.11-.23-.02-.5.21-.62,3.17-.64,6.1-2.42,7.99-5.09-1.12,3.28-4.34,5.48-7.71,5.97,0,0,.37-.66.37-.66.77,1.78,1.46,3.6,2.02,5.47h0Z"/>
        <path d="M353.73,296.6c-.28,4.93-2.63,9.91-6.76,12.75,0,0-.28-.91-.28-.91h.03s.01,0,.01,0c.46-.01.67.63.29.89-2.63,1.92-5.74,2.77-8.88,3.33,0,0,.03-.58.03-.58.8.26,2.79.96,3.57,1.2.4.11.79.29,1.21.31-.42.04-.84-.05-1.26-.12-1.2-.23-2.52-.49-3.69-.82-.29-.07-.29-.51,0-.58,2.91-.79,5.98-1.75,8.41-3.54,0,0,.31.89.31.89-.5.05-.73-.65-.31-.91,3.98-2.73,6.29-7.3,7.32-11.93h0Z"/>
        <path class="cls-38" d="M385.96,299.75c-4.32.09-8.7-.07-13,.06,4.15-1.49,8.82-1.33,13-.06h0Z"/>
        <path class="cls-38" d="M386.31,297.94c1.47-5.63-.55-11.46-4.14-15.84-.51-.65-1.08-1.24-1.59-1.91.66.5,1.31,1.03,1.95,1.57,4.32,3.94,6.58,10.75,3.78,16.17h0Z"/>
        <path class="cls-38" d="M384.41,293.66c-1.42-4.44-3.71-11.32-9.68-9.26,5.95-3.77,9.81,4.25,9.68,9.26h0Z"/>
        <path d="M377.22,278.33c-9.38-3.88-16.69.99-20.59,9.65-.55,1.12-1.02,2.27-1.52,3.42,2.26-10.78,11.1-19.31,22.11-13.07h0Z"/>
        <path d="M367.23,283.61c-4.9.96-8.68,4.39-12.13,7.78,2.32-4.31,6.97-8.25,12.13-7.78h0Z"/>
        <path class="cls-38" d="M363.77,290.33c-4.8,3.54-8.26,8.6-10.12,14.23-.46,1.26-.82,2.68-1.21,3.96.35-7.42,4.43-14.98,11.33-18.19h0Z"/>
        <path class="cls-38" d="M359.73,303.51c-3.02.89-5.15,2.83-7.29,5.01.89-3,4.07-5.59,7.29-5.01h0Z"/>
        <path class="cls-50" d="M407.2,298.22s-9.96-.31-14.27,1.68c0,0,1.88,4.49,8.7,3.91s6.92-5.71,5.57-5.59Z"/>
        <path class="cls-38" d="M392.94,296.1c1.17,3.06,4.77,2.58,7.36,2,.96-.19,1.9-.47,2.91-.65-.84.56-1.73,1.05-2.69,1.4-2.6,1.21-7.55,1.01-7.58-2.75h0Z"/>
        <path d="M400.23,287.5c3.95.95,6.18,6.1,4.9,9.81-.26-3.74-1.79-7.59-4.9-9.81h0Z"/>
      </g>
      <g id="BOCA">
        <path class="cls-58" d="M407.67,312.11l-9.3,4.92.45,6.7s-6.46,6.88-9.27.62-1.7-12.96-1.7-12.96l2.53-1.97s.34,2.8,4.38,3.36,9.43-.33,11.43-1.74c0,0,.31.84,1.47,1.08Z"/>
        <path class="cls-22" d="M389.13,323.34s1.33,5.93,3.87,7.17c0,0,1.48,8.36,7.79,7.63,0,0,3.63-1.13,1.98-9.01-1.65-7.88-7.23-5.46-7.23-5.46,0,0-.37.38-1.03-.19s-2.35-2.74-5.39-.14Z"/>
        <polygon class="cls-32" points="397.29 312.96 396.79 316.52 399.17 313.18 397.29 312.96"/>
        <polygon class="cls-32" points="407.73 311.57 407.25 315.07 409.73 311.79 407.73 311.57"/>
        <polygon class="cls-32" points="389.76 326.21 391.99 325.22 391.65 329.68 389.76 326.21"/>
        <path class="cls-11" d="M397.19,313.19s-.26,3.02-1.01,3.76c0,0,2.43-1.44,2.77-3.5"/>
        <path class="cls-11" d="M407.71,311.79s-.26,3.02-1.01,3.76c0,0,2.43-1.44,2.77-3.5"/>
        <path class="cls-11" d="M413.04,302.75c.72,1.46,1.02,3.07.69,4.59s-1.33,2.95-2.87,3.86c-1.03.6-2.53.94-3.6.33"/>
        <path class="cls-11" d="M407.61,309.58c-1.75,2.29-4.78,3.16-7.64,3.51-1.25.15-7.12-.25-9.09-3.18"/>
        <path class="cls-11" d="M389.55,323.17s2.37-2.19,4.7.07c3.38,3.28,3.32,6.29,3.32,6.29"/>
        <path class="cls-11" d="M395.16,323.78s5.01-1.8,7.04,3.4.37,11.51-2.43,10.93c-2.81-.58-5.66-2.8-6.91-7.74"/>
        <path class="cls-11" d="M390.39,326.05c.08-.02,1.61-.84,1.61-.84,0,0,.41,2.83-.01,4.03"/>
        <path class="cls-11" d="M390.39,308.88s-1.48,2.76-6.05,3.42"/>
        <path class="cls-11" d="M391.65,329.53c-5.03-8.64-3.99-17.23-3.99-17.23"/>
        <path class="cls-11" d="M404.28,313.56l-5.91,3.47s.76,2.47.49,6.05"/>
        <path d="M406.35,304.72s1.74,3.53,3.88,1.79,3.3-5.52,2.68-6.62-2.09-2.27-3.32-2.07-8.66,1.28-6.9,4.57,3.65,2.33,3.65,2.33Z"/>
      </g>
      <path d="M376.18,277.84c1.77-2.04,4.45-3.77,7.3-3.18,2.61.53,5.21,1.14,7.74,2.04-2.68-.14-5.3-.56-7.91-1.05-2.6-.53-4.94.88-7.13,2.2h0Z"/>
    </g>
    <g id="TIRA_1" data-name="TIRA 1">
      <path class="cls-13" d="M452.76,296.94l-.31,37.02c0,34.74-3.04,73.92-25.62,59.82"/>
      <path class="cls-15" d="M452.76,296.94l-.31,37.02c0,35.81-3.04,73.92-25.62,59.82"/>
      <g>
        <circle class="cls-62" cx="421.67" cy="391.36" r="9.11"/>
        <circle class="cls-68" cx="421.67" cy="391.36" r="5.7"/>
        <g>
          <circle class="cls-2" cx="421.67" cy="391.36" r="5.7"/>
          <circle class="cls-2" cx="421.67" cy="391.36" r="9.11"/>
        </g>
      </g>
    </g>
    <g id="MANO_POSE_1" data-name="MANO POSE 1">
      <g id="MANO_D" data-name="MANO D">
        <path class="cls-25" d="M454.73,392.3c-1.24.73-2.54,1.43-3.8,2.11-1.91,1.02-2.25,2.68-3.25,4.61-3.4,6.55-11.13,11.92-11.78,11.97-.73.06-8.75,1.04-17.56,1.33-.92.03-2.38-6.31-3.18-6.79-2.16-1.31-4.54-3.98-4.25-4.38.23-.32-5.04-1.31-4.87-1.88.13-.45,1.33-3.79,2.75-4.84.74-.55,2.16,1.02,2.2.75.18-1.12.79-2.36,1.24-2.83,1.07-1.11,6.78,2.63,8.32,2.44,10.86-1.36,11.85-2.12,14.63-6.77.15-.25,1.15-.8,1.09-1.08-.04-.2-5.22-1.48-5.98-1.3-1.46.35-3.32,1.19-4.79,1.46-.34.06-1.16.76-1.48.63-.38-.16-.76-.85-1.01-1.18-.91-1.24-2.03-2.57-2.94-3.81,5.7-1.25,9.44-2.97,10.69-3.07.95-.07,10.31,2.33,11.18,2.74,1.47.69,3.13.55,4.59-.17.68-.34,2.01-1.2,2.77-1.16.48.02.72,1.09,1.11,1.38,2.85,2.14,2.86,6.45,4.97,9.32"/>
        <path class="cls-53" d="M468.93,389.74l-12.96,4.49s-.95-4.13-3.02-8.35c-2.07-4.22-4.3-6.57-4.3-6.57l13.27-7.71,7.01,18.14Z"/>
        <path class="cls-11" d="M455.94,375.11l-7.29,4.21s4.64,4.53,7.31,14.92l7.52-2.77"/>
        <polyline class="cls-11" points="435.9 410.98 446.5 402.04 450.63 394.75 455.13 392.54"/>
        <path class="cls-11" d="M435.9,410.98s-15.1,1.14-17.56,1.33"/>
        <line class="cls-11" x1="418.33" y1="412.31" x2="415.49" y2="406.27"/>
        <path class="cls-11" d="M430.59,407.55s-6.88,1.03-11.75,1.2"/>
        <line class="cls-11" x1="418.84" y1="408.75" x2="410.95" y2="401.84"/>
        <path class="cls-11" d="M429.82,403.7s-5.38.76-11.05.49"/>
        <polyline class="cls-11" points="429.23 398 421.38 399.49 410.35 396.6 412.45 391.82 421 394.74 431.93 392.77 436.53 387.13"/>
        <polyline class="cls-11" points="436.72 386.88 430.32 385.32 424.48 387.67 420.29 382.76 431.22 379.62 444.6 382.9"/>
        <line class="cls-11" x1="444.99" y1="383.02" x2="449.99" y2="380.93"/>
        <line class="cls-11" x1="406.03" y1="399.26" x2="418.77" y2="404.19"/>
        <polyline class="cls-11" points="406.03 399.26 408.75 394.02 410.42 394.71"/>
      </g>
      <g id="BRAZO_D" data-name="BRAZO D">
        <path class="cls-32" d="M524.95,331.12s23.29-16.2,30.75-5.86c12.27,17.01-6.16,30.91-6.16,30.91,0,0-21.05,16.44-44.14,23.61-13.16,4.08-39.09,14.97-39.09,14.97,0,0-3.58-12.79-11.9-24.27l70.55-39.37Z"/>
        <line class="cls-11" x1="455.87" y1="369.77" x2="527.05" y2="329.76"/>
        <path class="cls-11" d="M558.79,343.64c-1.96,20.91-90.94,50.57-90.94,50.57"/>
        <path class="cls-11" d="M454.47,370.63s7.38,8.3,12.03,24.54"/>
      </g>
      <g id="ANTE_BRAZO_D" data-name="ANTE BRAZO D">
        <path class="cls-32" d="M546.63,281.16c4.93,15.01,9.35,35.62,12.38,52.49,0,0,4.71,21.24-14.63,20.85-11.65-.23-18.65-6.69-22.56-19.92-3.91-13.23-20.32-55.75-7.52-88.64l8.41-6.13c8.93,6.58,17.09,21.93,23.92,41.34Z"/>
        <path class="cls-11" d="M522.71,239.82c20.66,11.33,45.56,104.55,33.26,110.42"/>
        <path class="cls-11" d="M536.76,325.05s-6.61.5-14.08,7.67"/>
        <path class="cls-11" d="M532.35,338.48s-3.44-2.95-9.24-3.49"/>
        <path class="cls-11" d="M509.72,259.76c-2.72,9.88-7.82,16.55,11.78,73.09"/>
      </g>
    </g>
    <path class="cls-38" d="M391.22,290.44c-1.33-5.07,4.81-9.63,9.46-9.32-1.19.34-2.3.76-3.34,1.32-2.96,1.68-6,4.34-6.12,8h0Z"/>
  </g>
</svg>