<?xml version="1.0" encoding="UTF-8"?>
<svg id="Calque_1" data-name="Calque 1" xmlns="http://www.w3.org/2000/svg" viewBox="0 0 653.23 595.28">
  <defs>
    <style>
      .cls-1 {
        fill: #616160;
      }

      .cls-2 {
        fill: #ededed;
      }
    </style>
  </defs>
  <circle class="cls-2" cx="323.26" cy="173.35" r="126.34"/>
  <g>
    <path class="cls-1" d="M72.29,321.01l33.07,76.88,32.02-77.58c.7-1.94,1.41-2.46,3.69-2.46h7.56c5.28,0,10.56-.53,14.07-.53,1.23,0,2.11.35,2.11,1.41s-.7,1.41-2.11,1.41c-.88,0-2.29-.18-4.93-.18-4.75,0-5.98,1.06-5.98,4.75v83.91c0,3.69,1.23,4.75,5.98,4.75,2.64,0,3.87-.18,5.1-.18s1.76.53,1.76,1.41-.7,1.41-1.76,1.41-2.99-.35-5.1-.35c-4.22,0-7.21-.18-11.61-.18s-8.97.18-13.02.18c-2.29,0-4.05.35-5.1.35s-1.76-.53-1.76-1.41.7-1.41,1.76-1.41c1.23,0,2.46.18,5.1.18,4.75,0,5.81-1.06,5.81-4.75v-81.63l-37.29,89.19c-.35.7-.53,1.06-1.41,1.06h-.35c-1.06,0-1.23-.35-1.58-1.06l-38.35-88.84v7.56h-.18v73.71c0,3.69,1.23,4.75,5.98,4.75,2.46,0,3.69-.18,5.1-.18,1.06,0,1.76.53,1.76,1.41s-.7,1.41-1.76,1.41-2.81-.35-5.1-.35c-2.81,0-4.4-.18-7.74-.18-3.52,0-5.28.18-7.92.18-2.29,0-4.22.35-5.1.35-1.06,0-1.76-.53-1.76-1.41s.53-1.41,1.76-1.41,2.64.18,5.1.18c4.75,0,5.98-1.06,5.98-4.75v-83.91c0-3.69-1.23-4.75-5.98-4.75-2.46,0-4.05.18-4.93.18-1.41,0-1.94-.35-1.94-1.41s.7-1.41,2.11-1.41c3.34,0,5.98.53,12.67.53h10.38c2.46,0,3.17,1.41,3.87,3.17Z"/>
    <path class="cls-1" d="M260.16,413.02c4.22,0,6.33-2.64,7.56-3.69s2.46-1.23,3.17-.35c.7.88.18,2.29-1.06,3.17-2.29,2.29-7.04,4.57-14.25,4.57-10.91,0-17.06-5.45-18.3-17.94-4.22,9.85-13.72,18.12-29.73,18.12s-27.97-7.56-27.97-24.98c0-20.41,16.89-26.74,44.16-26.74h13.37v-4.75c0-24.8-8.27-33.6-23.22-33.6-12.84,0-20.93,4.75-24.28,11.61,1.23-.88,2.81-1.41,4.57-1.41,4.75,0,8.27,3.34,8.27,8.97s-3.69,9.32-9.15,9.32-8.62-3.69-8.62-8.97c0-14.25,10.56-23.22,32.37-23.22s34.66,11.79,34.66,39.76v36.06c0,9.32,2.99,14.07,8.44,14.07ZM211.43,412.67c5.45,0,10.38-1.93,14.78-5.45,6.51-5.45,10.91-14.6,10.91-26.39v-12.14h-13.37c-20.58,0-29.2,6.69-29.2,23.4,0,14.6,6.86,20.58,16.89,20.58Z"/>
    <path class="cls-1" d="M316.98,332.45c-7.39,5.81-11.96,17.94-11.96,40.29v34.13c0,4.57,1.23,5.98,6.86,5.98,2.64,0,4.22-.35,5.45-.35,1.41,0,2.11.7,2.11,1.76,0,1.23-.88,1.76-2.11,1.76-1.06,0-3.17-.35-5.45-.35-4.75,0-9.5-.35-14.43-.35s-9.5.35-14.25.35c-2.46,0-4.57.35-5.81.35-.88,0-1.76-.53-1.76-1.76,0-1.06.7-1.76,1.76-1.76,1.58,0,3.17.35,5.81.35,5.63,0,6.86-1.41,6.86-5.98v-67.73c0-5.45-1.58-6.86-7.56-6.86-1.58,0-3.87.18-4.93.18-1.23,0-2.29-.35-2.29-1.58,0-1.41,1.23-1.76,2.29-1.76,1.41,0,3.34.18,5.1.18,6.16,0,13.72-1.41,17.59-4.05,1.58-1.41,2.46-1.94,3.34-1.94,1.23,0,1.41.53,1.41,2.29v19c4.22-11.79,13.19-21.46,29.2-21.46s27.79,9.68,27.79,31.67v44.16c0,9.32,2.82,14.07,8.44,14.07,4.22,0,6.16-2.46,7.56-3.52,1.23-1.06,2.46-1.41,3.17-.35.7.88-.18,2.29-1.06,3.17-2.46,2.11-6.51,4.4-14.43,4.4-12.31,0-18.47-6.86-18.47-23.05v-40.64c0-16.01-4.93-24.8-17.42-24.8-4.93,0-9.15,1.41-12.84,4.22Z"/>
    <path class="cls-1" d="M400.18,328.05c5.81,0,11.26-16.54,11.26-26.39,0-1.94.53-2.81,1.76-2.81,1.41,0,1.76.88,1.76,2.81v26.39h23.22c1.76,0,2.29.53,2.29,2.29,0,1.23-.53,1.93-2.29,1.93h-23.22v58.58c0,16.01,3.87,22.17,12.14,22.17,5.45,0,8.62-1.41,10.91-3.52,1.06-.7,1.76-1.76,2.99-2.81.88-.88,2.11-1.23,2.81-.35.7.7.35,1.94-.88,3.17-.88,1.06-1.76,1.58-3.17,2.46-4.05,2.99-8.62,4.93-15.31,4.93-14.07,0-24.28-6.86-24.28-26.74v-57.88h-11.26c-1.76,0-2.46-.53-2.46-1.93,0-1.76.7-2.29,2.46-2.29h11.26Z"/>
    <path class="cls-1" d="M512.77,330.34c1.41,0,2.82.35,4.05,1.06-1.94-2.82-5.1-4.93-9.85-4.93-19.18,0-27.97,26.39-27.97,50.31v30.08c0,4.57,1.23,5.98,6.86,5.98,2.64,0,4.22-.35,5.45-.35,1.41,0,2.11.7,2.11,1.76,0,1.23-.88,1.76-2.11,1.76-1.06,0-3.17-.35-5.45-.35-4.75,0-9.5-.35-14.43-.35s-9.5.35-14.25.35c-2.46,0-4.57.35-5.81.35-.88,0-1.76-.53-1.76-1.76,0-1.06.7-1.76,1.76-1.76,1.58,0,3.17.35,5.81.35,5.63,0,6.86-1.41,6.86-5.98v-67.73c0-5.63-1.58-7.04-7.56-7.04-1.58,0-3.87.35-4.93.35-1.23,0-2.29-.53-2.29-1.76,0-1.41,1.23-1.76,2.29-1.76,1.41,0,3.34.18,5.1.18,6.16,0,13.72-1.41,17.59-4.05,1.58-1.23,2.46-1.93,3.34-1.93,1.23,0,1.41.53,1.41,2.46v26.56c2.11-8.97,9.15-29.03,27.97-29.03,10.03,0,14.6,6.68,14.95,15.3v.7c0,5.63-3.34,9.15-9.15,9.15-5.28,0-8.62-3.34-8.62-8.8,0-5.81,3.87-9.15,8.62-9.15Z"/>
    <path class="cls-1" d="M611.98,413.02c4.22,0,6.33-2.64,7.56-3.69s2.46-1.23,3.17-.35c.7.88.18,2.29-1.06,3.17-2.29,2.29-7.04,4.57-14.25,4.57-10.91,0-17.06-5.45-18.3-17.94-4.22,9.85-13.72,18.12-29.73,18.12s-27.97-7.56-27.97-24.98c0-20.41,16.89-26.74,44.16-26.74h13.37v-4.75c0-24.8-8.27-33.6-23.22-33.6-12.84,0-20.93,4.75-24.28,11.61,1.23-.88,2.82-1.41,4.57-1.41,4.75,0,8.27,3.34,8.27,8.97s-3.69,9.32-9.15,9.32-8.62-3.69-8.62-8.97c0-14.25,10.56-23.22,32.37-23.22s34.66,11.79,34.66,39.76v36.06c0,9.32,2.99,14.07,8.44,14.07ZM563.25,412.67c5.45,0,10.38-1.93,14.78-5.45,6.51-5.45,10.91-14.6,10.91-26.39v-12.14h-13.37c-20.58,0-29.2,6.69-29.2,23.4,0,14.6,6.86,20.58,16.89,20.58Z"/>
  </g>
  <g>
    <path class="cls-1" d="M151.48,464.15s-2.39,23.19,10.69,23.19c6.13,0,18.77-2.46,31.33-16.4,1.27-1.41,1.27,2.93,1.27,2.93-13.69,14.29-26.17,16.98-32.61,16.98-10.02,0-12.49-11.01-13.01-19.09-3.07,7.73-7.7,14.17-11.22,14.17-2.47,0-3.74-2.11-3.74-6.32,0-9.25,11.59-25.3,17.35-25.3,2.09,0,3.22,1.29,3.59,3.75-.22.82-2.02,3.05-2.24.7-.08-.59-.52-.94-1.35-.94-5.76,0-15.11,13.94-15.11,21.79,0,1.76.52,2.81,1.5,2.81,3.66,0,8.97-9.49,11.29-18.74,0,0,2.39-2.46,2.24.47Z"/>
    <path class="cls-1" d="M235.01,493.9c-15.41,0-13.83-12.42-13.76-22.14,0-4.57.07-8.32-2.32-8.32-2.99,0-9.35,6.68-13.83,13-4.26,5.97-8.23,11.59-10.99,11.59-2.17,0-2.92-2.22-2.92-5.39,0-3.87,1.5-9.6,2.17-11.6,0,0,1.35-2.22,2.02,1.64-.52,1.76-1.94,6.56-1.94,9.96,0,1.05.15,1.87.67,1.87,1.87,0,5.68-5.27,9.5-10.66,4.64-6.56,11.67-13.94,15.33-13.94,4.64,0,4.56,5.39,4.56,11.83-.07,8.08-1.65,18.62,11.52,18.62,9.72,0,27.59-5.62,39.64-19.44,1.35-1.41,1.27,2.93,1.27,2.93-13.76,14.64-30.89,20.03-40.91,20.03Z"/>
    <path class="cls-1" d="M286.77,489.69c-8.82,0-13.16-4.57-13.01-14.05,0-1.52.15-2.58.37-4.1,1.27-1.99,2.84-1.76,2.24.12-.22,1.29-.37,2.58-.37,3.98-.15,7.14,3.44,10.54,10.77,10.54,10.02,0,22.73-4.22,32.9-15.23,1.5-1.29,1.2,3.05,1.2,3.05-10.54,10.54-23.71,15.69-34.1,15.69ZM276.74,447.17c4.26,0,2.39,5.39-1.35,5.39-2.17-.23,1.05-3.51,1.35-5.39Z"/>
    <path class="cls-1" d="M436.78,473.99c-13.24,13.7-30.06,19.91-40.83,19.91-15.41,0-15.33-12.18-15.26-22.02,0-4.69.08-8.43-2.32-8.43-8.23,0-18.7,15.46-26.4,15.46-3.07,0-3.81-2.93-3.81-6.91,0-2.23,1.57-12.06-1.27-12.06-6.28,0-23.63,18.16-27.37,24.83,0,0-1.12,2.93-2.24-.23.3-5.27.82-8.67,2.24-13,1.42-3.28,2.02,1.64,2.02,1.64-.75,1.99-1.2,3.87-1.5,6.09,6.28-8.32,20.94-22.84,26.85-22.84,5.31,0,3.81,10.19,3.51,15.58,0,1.87.3,3.4,1.57,3.4,7.1,0,17.72-15.46,26.4-15.46,4.64,0,4.56,5.39,4.56,11.95-.08,8.2-.15,18.51,13.01,18.51,10.54,0,26.32-4.8,39.64-19.44,0,0,1.35-1.64,1.2,3.05Z"/>
    <path class="cls-1" d="M450.7,464.15s-2.39,23.19,10.69,23.19c6.13,0,18.77-2.46,31.33-16.4,1.27-1.41,1.27,2.93,1.27,2.93-13.69,14.29-26.17,16.98-32.61,16.98-10.02,0-12.49-11.01-13.01-19.09-3.07,7.73-7.7,14.17-11.22,14.17-2.47,0-3.74-2.11-3.74-6.32,0-9.25,11.59-25.3,17.35-25.3,2.09,0,3.22,1.29,3.59,3.75-.22.82-2.02,3.05-2.24.7-.07-.59-.52-.94-1.35-.94-5.76,0-15.11,13.94-15.11,21.79,0,1.76.52,2.81,1.5,2.81,3.66,0,8.97-9.49,11.29-18.74,0,0,2.39-2.46,2.24.47Z"/>
    <path class="cls-1" d="M545,473.99c-12.19,12.3-27.52,19.68-39.71,19.56-6.88,0-13.46-3.16-13.69-16.98,0-17.45,13.61-52.82,21.09-52.82,3.14,0,4.71,2.93,4.71,7.61,0,16.98-13.91,34.32-23.41,42.52-.07,0-.07.12-.07.12-.08.94-.08,1.76-.08,2.58.15,11.01,5.68,13.47,11.44,13.47,11.82.12,27.07-6.44,38.51-19.09,0,0,1.35-1.52,1.2,3.05ZM494.37,469.54c8.97-8.2,20.79-23.42,20.79-38.18,0-2.58-.82-4.1-2.47-4.1-5.91,0-15.85,25.06-18.32,42.28Z"/>
  </g>
  <g>
    <path class="cls-1" d="M395.47,123.93c-.59.24-4.73,3.74-5.41,4.42-.99.98-2.1,2.51-3.25,4.05.33.42.66.84,1,1.26,2.41-3.47,5.45-6.54,8.4-9.49.08-.37-.5-.33-.73-.24Z"/>
    <path class="cls-1" d="M400.44,131.35c-4.07.41-7.68,2.1-10.9,4.4.31.37.62.75.93,1.12,3.41-2.71,7.8-4.48,11.63-5.1.11-.87-1.11-.48-1.66-.43Z"/>
    <path class="cls-1" d="M345.54,297.94c2.15-3.63,1.7-9.27,1.42-13.38,2.17-11.21-9.14-39.09,1.94-39.26,24.76-.39,37.91-16.72,40.65-21.6.02-.04.01-.14.06-.14,4.64.41,17.57,3.37,23.81,7.59-5.74-5.77-14.05-8.25-23.38-8.61.45-1.12.84-2.25,1.16-3.38,6.17-1.91,15.88-.26,21.98,1.37-5.23-3.14-13.54-4.18-21.64-2.62.21-.84.38-1.69.53-2.54,15.7-5.75,31.97-10.65,41.47-2.57-6.51-10.09-27.93-3.93-41.33,1.7.49-3.43-.07-22.73-.07-22.73,2.61-6.21,1.82-15.34,1.54-16.2.02-.01.04-.03.06-.04-.03,0-.05,0-.07,0-1-3.1-5.82-8.25-6.04-9.38-.18-.15,3.11-5.48,3.32-8.56h0c.28-1.64.39-3.3.44-4.98,0,0,0,0,0,0,.03-1.54.08-3.1.07-4.63-.78-1.91-2.06-3.71-3.3-5.37h0c-.46-.59-.93-1.2-1.4-1.78,0,0,0,0,0,0-1.74-2.15-3.59-4.21-5.23-6.43h0c-.04-.05-.07-.1-.11-.16h0c-2.29-3.65-4.88-7.08-6.98-10.81-.14-.24-.27-.48-.39-.72l-.04.17c-1.31-1.67-2.24-3.04-2.9-4.17l.03-.22-.1.1c-2.97-3.14.72-12.08,1.44-15.45.81-5.13,4.22-9.94,7.17-14.12h0c2.12-4.17,4.35-14.02,5.77-18.58,1.26-7.59-4.15-7.57-6.58-5.27h0c-3.43,2.92-15.93,13.84-19.2,16.63l-.04-.17s-15.68,13.76-15.68,13.76c-4.28,3.08-18.56,6.68-17.68,13.55h0c.05.21.12.41.2.61,2.74,4.94,9.7,5.96,14.69,7.65,13.76,3.1,29.71,7.77,19.6,24.99h0c3.67,6.79,7.19,13.68,10.35,20.7.05,0,.09,0,.14,0,.03.07,0,.16-.01.24.92,1.73,1.69,3.55,2.03,5.49h0c.13,7.93,14.53,24.89,15.14,29.87,1.9,1.76-12.94,2.63-14.67.73-1.21-.44-1.86-1.99-2.13-3.84-.31-2.08-4.78-37.06-20.24-39.52-10.48,7.1-24.33,2.55-34.88,8.29-3.69,2.22-3.14,8.2-.77,11.53,6.44,13.89,17.25,9.39,23.33,7.72,15.5-12.09,15.1,14.73,23.05,23.61,2.74,1.37,10.59,10.73,11.6,11.23-1.18,6.37-11.21,19.63-24.47,19.89-1.67-.55-3.39-.18-5.11-.4h0c-1.8-.17-3.58-.53-5.32-.98h0c-4.19-1.1-8.29-2.56-12.19-4.46,4.31,33.45-11.97,40.33-11.15,67.01,9.98.81,20.39.27,30.12-1.36ZM331.08,164.89c.11.03.21.06.31.09,2.92.91,3.79,5.86-.59,4.43-2.45-.82-1.78-4.55.28-4.53ZM327.69,183.34c-10.46-2.58-17.82-17.98-3.25-20.59-8.01,17.84,17.77,21.94,11.3,1.8l.29-.21c7.3,6.24,4.5,22.92-8.33,19.01ZM380.9,166.03c.7,1.82-2.69,2-3.74,1.03-1.77-2.36,3.11-3.39,3.74-1.03ZM377.03,176.52c6.4.23,8.28-6.61,7.12-11.8,7.48,5.5-2.18,23.37-7.12,11.8ZM371.95,207.44c-4.69-4.86,20.27-6.94,17.69-1.85-1.29,2.19-9.89,13.29-6.45,6.33,0,0-3.2,2.45-3.2,2.45,3.89-9.36-.43-8.91-8.04-6.92ZM337.09,252.11s.06.02.08.04c-.04.08-.09.17-.13.25.02-.1.03-.19.05-.29Z"/>
    <path class="cls-1" d="M239.76,266.86c17.66,16.05,39.88,27.14,64.49,31.15.04-.95.07-1.92.12-2.82-.05-3.33.22-6.67.85-9.89,1.2-6.19,3.76-11.95,6.37-17.65,1.17-2.55,2.57-5.14,3.23-7.87.73-3.03,1.06-6.3,1.29-9.4.48-6.47-1.23-12.84-.2-19.34.03-.17.08-.3.12-.46,0-.68,0-1.37.03-2.06-.12-.35-.18-.74-.15-1.18.05-.64.12-1.28.19-1.92-2.71.64-5.28,1.49-7.35,2.59-1.79.95-3.09,2.12-4.66,3.3-.28.21-.56.98-1.07.29,3.54-3.56,8.06-5.86,13.19-7.19,0,0,0,0,0,0h0c.23-1.89.49-3.78.67-5.67l-2.62-.08-11.01,2.31c3.51-2.11,8.42-3.26,13.71-3.33,0-.11.02-.22.03-.33.08-1.31.16-2.65.33-3.97-13.36-4.45-26.35-6.97-34.42-.09-.61-.61.19-.77.43-1.02,6.99-7.08,21.25-4.28,34.02.05h0c0-5.75.26-11.41-.03-17.13-.06-.08-.12-.16-.18-.24-3.04-3.72-6.66-7.13-8.78-11.5-3.8-7.84-4.37-18.27.84-25.62.84-1.19,1.93-1.66,3.02-1.68.48-.3.97-.57,1.47-.83.48-.24.97-.45,1.48-.62,1.12-.37,2.3-.68,3.48-.77,1.28-.31,2.57-.56,3.8-.75,3.84-.6,7.72-.78,11.59-1.09,5.13-.42,11.43-1.73,15.45-5.29,1.06-1.41,2.18-2.99,3.26-4.61.21-.45.46-.83.76-1.14,2.33-3.57,4.32-7.08,4.75-8.77,0-.43-.02-.82-.09-1.19-1.76-3.69-13.66-4.58-17.73-5.84-3.2-.99-11.78-3.94-13.92-5.96-1.37-1.29-2.7-3.45-4.04-5.73-.29-.42-.55-.86-.77-1.32-1.47-2.53-2.96-5.05-4.52-6.62-3.73-3.75-13.16-5.89-15.67-9.44-4.09-5.76-.99-19.68-5.31-25.03-2.21-2.74-5.07,4.8-6.78,5.22l-4.72-12.53c-2.11,0-8.87,13.38-10.13,16.01-6.39,13.35-5.51,19.07-8.47,32.33-3.03,13.56-14.58,26.75-19.62,41.05-5.59,15.86-10.26,46.54-18.33,59.08-5.12,7.95-9.4,15.75-13.27,23.49,6.63,11.65,15.03,22.16,24.89,31.11Z"/>
    <path class="cls-1" d="M317.36,212.28c0,.28,0,.56,0,.84-.01.08-.02.15-.03.23,4.17,1.39,8.37,2.96,12.48,4.5.02-.14.03-.28.06-.42-2.64-1.04-7.17-3.25-9.03-3.92-1.14-.42-2.3-.83-3.48-1.22h0Z"/>
    <path class="cls-1" d="M316.22,224.41c-.04.34-.08.68-.12,1.01,2.9-.69,5.97-1.13,8.76-1.39,1.32-.12,3.73.07,5.55.09-.03-.32-.08-.64-.12-.95-.01-.09-.03-.18-.04-.26-.02.01-.04.03-.06.04-4.95-.1-9.67.34-13.97,1.45,0,0,0,0,0,0h0Z"/>
    <path class="cls-1" d="M328.21,219.14c-3.71-1.07-7.56-1.54-11.23-1.5-.03.36-.05.73-.09,1.09l4.22.13,8.75,1.57c-.04-.27-.06-.53-.08-.79-.71-.25-1.37-.44-1.56-.5Z"/>
    <path class="cls-1" d="M337.99,220.59c4.07,0,4.75-6.36.62-6.36s-4.75,6.36-.62,6.36Z"/>
    <path class="cls-1" d="M345.5,214.51c4.07,0,4.75-6.36.62-6.36s-4.75,6.36-.62,6.36Z"/>
    <path class="cls-1" d="M347.29,220.48c2.86,0,3.33-4.47.44-4.47s-3.33,4.47-.44,4.47Z"/>
  </g>
</svg>