<?xml version="1.0" encoding="UTF-8"?>
<svg id="Calque_1" data-name="Calque 1" xmlns="http://www.w3.org/2000/svg" viewBox="0 0 703.07 595.28">
  <defs>
    <style>
      .cls-1 {
        fill: #005150;
      }
    </style>
  </defs>
  <path class="cls-1" d="M445.72,277.3c-30.38,36.12-79.57,55.86-126.48,48.44-94.55-14.65-141.64-121.26-96.92-203.69,57.82-106.01,213.59-92.07,251.39,22.64,14.58,45.2,2.96,96.92-28,132.61h0ZM445.19,276.85c41.46-48.19,40.05-120.84.68-169.75-52.13-65.17-150.3-67.35-205.57-4.9-71.35,82.39-19.29,204.28,86.34,218.88,43.73,6.27,90-10.17,118.55-44.23h0Z"/>
  <g>
    <path class="cls-1" d="M72.48,347.69l35.53,82.6,34.4-83.35c.76-2.08,1.51-2.65,3.97-2.65h8.13c5.67,0,11.34-.57,15.12-.57,1.32,0,2.27.38,2.27,1.51s-.76,1.51-2.27,1.51c-.95,0-2.46-.19-5.29-.19-5.1,0-6.43,1.13-6.43,5.1v90.16c0,3.97,1.32,5.1,6.43,5.1,2.84,0,4.16-.19,5.48-.19s1.89.57,1.89,1.51-.76,1.51-1.89,1.51-3.21-.38-5.48-.38c-4.54,0-7.75-.19-12.47-.19s-9.64.19-13.99.19c-2.46,0-4.35.38-5.48.38s-1.89-.57-1.89-1.51.76-1.51,1.89-1.51c1.32,0,2.65.19,5.48.19,5.1,0,6.24-1.13,6.24-5.1v-87.7l-40.07,95.83c-.38.76-.57,1.13-1.51,1.13h-.38c-1.13,0-1.32-.38-1.7-1.13l-41.21-95.45v8.13h-.19v79.2c0,3.97,1.32,5.1,6.43,5.1,2.65,0,3.97-.19,5.48-.19,1.13,0,1.89.57,1.89,1.51s-.76,1.51-1.89,1.51-3.02-.38-5.48-.38c-3.02,0-4.72-.19-8.32-.19-3.78,0-5.67.19-8.5.19-2.46,0-4.54.38-5.48.38-1.13,0-1.89-.57-1.89-1.51s.57-1.51,1.89-1.51,2.83.19,5.48.19c5.1,0,6.43-1.13,6.43-5.1v-90.16c0-3.97-1.32-5.1-6.43-5.1-2.65,0-4.35.19-5.29.19-1.51,0-2.08-.38-2.08-1.51s.76-1.51,2.27-1.51c3.59,0,6.43.57,13.61.57h11.15c2.65,0,3.4,1.51,4.16,3.4Z"/>
    <path class="cls-1" d="M274.34,446.54c4.54,0,6.8-2.83,8.13-3.97,1.32-1.13,2.65-1.32,3.4-.38.76.94.19,2.46-1.13,3.4-2.46,2.46-7.56,4.91-15.31,4.91-11.72,0-18.33-5.86-19.66-19.28-4.54,10.58-14.74,19.47-31.94,19.47s-30.05-8.13-30.05-26.84c0-21.93,18.14-28.73,47.44-28.73h14.36v-5.1c0-26.65-8.88-36.1-24.95-36.1-13.8,0-22.49,5.1-26.08,12.47,1.32-.94,3.02-1.51,4.91-1.51,5.1,0,8.88,3.59,8.88,9.64s-3.97,10.02-9.83,10.02-9.26-3.97-9.26-9.64c0-15.31,11.34-24.95,34.78-24.95s37.24,12.66,37.24,42.72v38.75c0,10.02,3.21,15.12,9.07,15.12ZM221.99,446.17c5.86,0,11.15-2.08,15.88-5.86,6.99-5.86,11.72-15.69,11.72-28.35v-13.04h-14.36c-22.11,0-31.38,7.18-31.38,25.14,0,15.69,7.37,22.11,18.15,22.11Z"/>
    <path class="cls-1" d="M335.4,359.98c-7.94,6.24-12.85,19.28-12.85,43.28v36.67c0,4.91,1.32,6.43,7.37,6.43,2.83,0,4.54-.38,5.86-.38,1.51,0,2.27.76,2.27,1.89,0,1.32-.94,1.89-2.27,1.89-1.13,0-3.4-.38-5.86-.38-5.1,0-10.21-.38-15.5-.38s-10.21.38-15.31.38c-2.65,0-4.92.38-6.24.38-.95,0-1.89-.57-1.89-1.89,0-1.13.76-1.89,1.89-1.89,1.7,0,3.4.38,6.24.38,6.05,0,7.37-1.51,7.37-6.43v-72.77c0-5.86-1.7-7.37-8.13-7.37-1.7,0-4.16.19-5.29.19-1.32,0-2.46-.38-2.46-1.7,0-1.51,1.32-1.89,2.46-1.89,1.51,0,3.59.19,5.48.19,6.62,0,14.74-1.51,18.9-4.35,1.7-1.51,2.65-2.08,3.59-2.08,1.32,0,1.51.57,1.51,2.46v20.41c4.54-12.66,14.18-23.06,31.38-23.06s29.86,10.4,29.86,34.02v47.44c0,10.02,3.02,15.12,9.07,15.12,4.54,0,6.62-2.65,8.13-3.78,1.32-1.13,2.65-1.51,3.4-.38.76.95-.19,2.46-1.13,3.4-2.65,2.27-6.99,4.73-15.5,4.73-13.23,0-19.85-7.37-19.85-24.76v-43.66c0-17.2-5.29-26.65-18.71-26.65-5.29,0-9.83,1.51-13.8,4.54Z"/>
    <path class="cls-1" d="M424.8,355.25c6.24,0,12.1-17.77,12.1-28.35,0-2.08.57-3.02,1.89-3.02,1.51,0,1.89.95,1.89,3.02v28.35h24.95c1.89,0,2.46.57,2.46,2.46,0,1.32-.57,2.08-2.46,2.08h-24.95v62.94c0,17.2,4.16,23.82,13.04,23.82,5.86,0,9.26-1.51,11.72-3.78,1.13-.76,1.89-1.89,3.21-3.02.94-.95,2.27-1.32,3.02-.38.76.76.38,2.08-.94,3.4-.95,1.13-1.89,1.7-3.4,2.65-4.35,3.21-9.26,5.29-16.44,5.29-15.12,0-26.08-7.37-26.08-28.73v-62.18h-12.1c-1.89,0-2.65-.57-2.65-2.08,0-1.89.76-2.46,2.65-2.46h12.1Z"/>
    <path class="cls-1" d="M545.77,357.71c1.51,0,3.02.38,4.35,1.13-2.08-3.02-5.48-5.29-10.58-5.29-20.6,0-30.05,28.35-30.05,54.06v32.32c0,4.91,1.32,6.43,7.37,6.43,2.83,0,4.54-.38,5.86-.38,1.51,0,2.27.76,2.27,1.89,0,1.32-.94,1.89-2.27,1.89-1.13,0-3.4-.38-5.86-.38-5.1,0-10.21-.38-15.5-.38s-10.21.38-15.31.38c-2.65,0-4.92.38-6.24.38-.95,0-1.89-.57-1.89-1.89,0-1.13.76-1.89,1.89-1.89,1.7,0,3.4.38,6.24.38,6.05,0,7.37-1.51,7.37-6.43v-72.77c0-6.05-1.7-7.56-8.13-7.56-1.7,0-4.16.38-5.29.38-1.32,0-2.46-.57-2.46-1.89,0-1.51,1.32-1.89,2.46-1.89,1.51,0,3.59.19,5.48.19,6.62,0,14.74-1.51,18.9-4.35,1.7-1.32,2.65-2.08,3.59-2.08,1.32,0,1.51.57,1.51,2.65v28.54c2.27-9.64,9.83-31.19,30.05-31.19,10.77,0,15.69,7.18,16.07,16.44v.76c0,6.05-3.59,9.83-9.83,9.83-5.67,0-9.26-3.59-9.26-9.45,0-6.24,4.16-9.83,9.26-9.83Z"/>
    <path class="cls-1" d="M652.38,446.54c4.54,0,6.8-2.83,8.13-3.97,1.32-1.13,2.65-1.32,3.4-.38.76.94.19,2.46-1.13,3.4-2.46,2.46-7.56,4.91-15.31,4.91-11.72,0-18.33-5.86-19.66-19.28-4.54,10.58-14.74,19.47-31.94,19.47s-30.05-8.13-30.05-26.84c0-21.93,18.14-28.73,47.44-28.73h14.36v-5.1c0-26.65-8.88-36.1-24.95-36.1-13.8,0-22.49,5.1-26.08,12.47,1.32-.94,3.02-1.51,4.91-1.51,5.1,0,8.88,3.59,8.88,9.64s-3.97,10.02-9.83,10.02-9.26-3.97-9.26-9.64c0-15.31,11.34-24.95,34.78-24.95s37.24,12.66,37.24,42.72v38.75c0,10.02,3.21,15.12,9.07,15.12ZM600.02,446.17c5.86,0,11.15-2.08,15.88-5.86,6.99-5.86,11.72-15.69,11.72-28.35v-13.04h-14.36c-22.11,0-31.38,7.18-31.38,25.14,0,15.69,7.37,22.11,18.15,22.11Z"/>
  </g>
  <g>
    <path class="cls-1" d="M157.57,501.49s-2.57,24.92,11.49,24.92c6.59,0,20.17-2.64,33.67-17.62,1.37-1.51,1.37,3.15,1.37,3.15-14.7,15.35-28.12,18.25-35.03,18.25-10.77,0-13.42-11.83-13.98-20.51-3.29,8.31-8.28,15.23-12.05,15.23-2.65,0-4.02-2.27-4.02-6.8,0-9.94,12.45-27.18,18.64-27.18,2.25,0,3.46,1.38,3.86,4.03-.24.88-2.17,3.27-2.41.75-.08-.63-.56-1.01-1.45-1.01-6.19,0-16.23,14.98-16.23,23.41,0,1.89.56,3.02,1.61,3.02,3.94,0,9.64-10.19,12.13-20.14,0,0,2.57-2.64,2.41.5Z"/>
    <path class="cls-1" d="M247.33,533.45c-16.55,0-14.87-13.34-14.79-23.79,0-4.91.08-8.94-2.49-8.94-3.21,0-10.04,7.17-14.87,13.97-4.58,6.42-8.84,12.46-11.81,12.46-2.33,0-3.13-2.39-3.13-5.79,0-4.15,1.61-10.32,2.33-12.46,0,0,1.45-2.39,2.17,1.76-.56,1.89-2.09,7.05-2.09,10.7,0,1.13.16,2.01.72,2.01,2.01,0,6.11-5.66,10.21-11.45,4.98-7.05,12.54-14.98,16.47-14.98,4.98,0,4.9,5.79,4.9,12.71-.08,8.68-1.77,20.01,12.38,20.01,10.45,0,29.65-6.04,42.59-20.89,1.45-1.51,1.37,3.15,1.37,3.15-14.79,15.73-33.19,21.52-43.95,21.52Z"/>
    <path class="cls-1" d="M302.94,528.92c-9.48,0-14.14-4.91-13.98-15.1,0-1.64.16-2.77.4-4.41,1.37-2.14,3.05-1.89,2.41.13-.24,1.38-.4,2.77-.4,4.28-.16,7.68,3.7,11.33,11.57,11.33,10.77,0,24.43-4.53,35.36-16.36,1.61-1.38,1.29,3.27,1.29,3.27-11.33,11.33-25.47,16.86-36.64,16.86ZM292.17,483.24c4.58,0,2.57,5.79-1.45,5.79-2.33-.25,1.12-3.78,1.45-5.79Z"/>
    <path class="cls-1" d="M464.13,512.06c-14.22,14.72-32.3,21.4-43.87,21.4-16.55,0-16.47-13.09-16.39-23.66,0-5.03.08-9.06-2.49-9.06-8.84,0-20.09,16.61-28.36,16.61-3.29,0-4.1-3.15-4.1-7.43,0-2.39,1.69-12.96-1.37-12.96-6.75,0-25.39,19.51-29.41,26.68,0,0-1.21,3.15-2.41-.25.32-5.66.88-9.31,2.41-13.97,1.53-3.52,2.17,1.76,2.17,1.76-.8,2.14-1.29,4.15-1.61,6.54,6.75-8.94,22.5-24.54,28.85-24.54,5.71,0,4.1,10.95,3.78,16.74,0,2.01.32,3.65,1.69,3.65,7.63,0,19.04-16.61,28.36-16.61,4.98,0,4.9,5.79,4.9,12.84-.08,8.81-.16,19.88,13.98,19.88,11.33,0,28.28-5.16,42.59-20.89,0,0,1.45-1.76,1.29,3.27Z"/>
    <path class="cls-1" d="M479.08,501.49s-2.57,24.92,11.49,24.92c6.59,0,20.17-2.64,33.67-17.62,1.37-1.51,1.37,3.15,1.37,3.15-14.7,15.35-28.12,18.25-35.03,18.25-10.77,0-13.42-11.83-13.98-20.51-3.29,8.31-8.28,15.23-12.05,15.23-2.65,0-4.02-2.27-4.02-6.8,0-9.94,12.46-27.18,18.64-27.18,2.25,0,3.46,1.38,3.86,4.03-.24.88-2.17,3.27-2.41.75-.08-.63-.56-1.01-1.45-1.01-6.19,0-16.23,14.98-16.23,23.41,0,1.89.56,3.02,1.61,3.02,3.94,0,9.64-10.19,12.13-20.14,0,0,2.57-2.64,2.41.5Z"/>
    <path class="cls-1" d="M580.41,512.06c-13.1,13.21-29.57,21.14-42.67,21.02-7.39,0-14.46-3.4-14.71-18.25,0-18.75,14.62-56.76,22.66-56.76,3.38,0,5.06,3.15,5.06,8.18,0,18.25-14.95,36.88-25.15,45.69-.08,0-.08.13-.08.13-.08,1.01-.08,1.89-.08,2.77.16,11.83,6.11,14.47,12.29,14.47,12.7.13,29.09-6.92,41.38-20.51,0,0,1.45-1.64,1.29,3.27ZM526.01,507.28c9.64-8.81,22.34-25.17,22.34-41.03,0-2.77-.88-4.4-2.65-4.4-6.35,0-17.04,26.93-19.69,45.43Z"/>
  </g>
  <g>
    <path class="cls-1" d="M419.74,135.91c-.64.26-5.08,4.02-5.82,4.75-1.06,1.06-2.25,2.69-3.49,4.35.35.45.71.9,1.07,1.35,2.59-3.73,5.85-7.03,9.02-10.2.08-.39-.54-.35-.78-.26Z"/>
    <path class="cls-1" d="M425.08,143.89c-4.38.44-8.26,2.26-11.72,4.73.33.4.67.8,1,1.21,3.66-2.91,8.38-4.81,12.49-5.48.12-.94-1.19-.52-1.78-.46Z"/>
    <path class="cls-1" d="M366.09,322.89c2.31-3.9,1.83-9.96,1.53-14.38,2.33-12.05-9.82-42,2.08-42.18,26.61-.42,40.73-17.97,43.68-23.21.03-.05.02-.15.07-.15,4.99.44,18.88,3.62,25.58,8.16-6.17-6.2-15.09-8.87-25.12-9.25.49-1.21.9-2.42,1.25-3.63,6.63-2.05,17.06-.28,23.61,1.47-5.62-3.37-14.55-4.5-23.25-2.81.22-.9.41-1.81.57-2.73,16.87-6.18,34.36-11.45,44.56-2.76-7-10.84-30.01-4.22-44.41,1.83.53-3.68-.07-24.42-.07-24.42,2.8-6.68,1.95-16.48,1.66-17.41.02-.01.04-.03.07-.04-.03,0-.05,0-.08,0-1.08-3.33-6.26-8.87-6.49-10.08-.19-.16,3.34-5.89,3.57-9.19h0c.3-1.76.42-3.55.47-5.35,0,0,0,0,0,0,.03-1.65.09-3.33.08-4.98-.84-2.05-2.21-3.99-3.55-5.77h0c-.5-.64-.99-1.28-1.51-1.91,0,0,0,0,0,0-1.87-2.31-3.85-4.53-5.62-6.91h0c-.04-.06-.08-.11-.12-.17h0c-2.46-3.92-5.25-7.61-7.5-11.61-.15-.25-.29-.51-.42-.78l-.05.19c-1.4-1.79-2.4-3.27-3.11-4.48l.03-.24-.1.11c-3.19-3.37.77-12.98,1.55-16.6.87-5.51,4.53-10.69,7.71-15.18h0c2.28-4.48,4.68-15.07,6.19-19.96,1.35-8.16-4.46-8.14-7.07-5.67h0c-3.68,3.14-17.12,14.87-20.63,17.87l-.05-.18s-16.85,14.78-16.85,14.78c-4.6,3.31-19.94,7.18-19,14.56h0c.05.22.13.44.21.65,2.95,5.31,10.42,6.41,15.79,8.22,14.79,3.33,31.92,8.35,21.06,26.85h0c3.94,7.3,7.72,14.7,11.12,22.24.05,0,.1,0,.15,0,.03.08-.01.17-.01.25.99,1.86,1.82,3.82,2.18,5.9h0c.14,8.52,15.62,26.75,16.27,32.09,2.05,1.89-13.9,2.82-15.76.79-1.31-.47-2-2.14-2.29-4.12-.33-2.24-5.14-39.82-21.74-42.46-11.26,7.63-26.14,2.75-37.48,8.91-3.97,2.39-3.38,8.81-.83,12.39,6.92,14.93,18.53,10.09,25.06,8.3,16.66-12.99,16.23,15.83,24.77,25.37,2.94,1.47,11.38,11.53,12.47,12.07-1.27,6.85-12.05,21.09-26.29,21.37-1.79-.59-3.64-.2-5.49-.43h0c-1.93-.19-3.85-.57-5.72-1.05h0c-4.5-1.19-8.91-2.75-13.1-4.79,4.63,35.94-12.86,43.33-11.98,72,10.72.87,21.91.29,32.36-1.47ZM350.55,179.93c.12.03.23.06.34.1,3.13.98,4.07,6.3-.63,4.76-2.63-.88-1.91-4.89.3-4.86ZM346.9,199.76c-11.24-2.78-19.15-19.31-3.5-22.12-8.6,19.17,19.09,23.57,12.14,1.93l.31-.23c7.85,6.71,4.83,24.63-8.95,20.42ZM404.08,181.15c.75,1.96-2.89,2.15-4.02,1.11-1.9-2.54,3.34-3.65,4.02-1.11ZM399.93,192.43c6.88.25,8.9-7.11,7.66-12.68,8.04,5.91-2.34,25.11-7.66,12.68ZM394.46,225.65c-5.04-5.22,21.78-7.46,19-1.99-1.39,2.36-10.63,14.28-6.93,6.8,0,0-3.43,2.63-3.43,2.63,4.18-10.06-.47-9.58-8.64-7.44ZM357.01,273.65s.06.03.09.04c-.05.09-.1.18-.14.27.02-.1.04-.21.05-.31Z"/>
    <path class="cls-1" d="M252.43,289.5c18.97,17.24,42.85,29.16,69.29,33.47.04-1.02.07-2.06.13-3.03-.05-3.58.24-7.17.91-10.63,1.29-6.66,4.04-12.84,6.85-18.96,1.26-2.74,2.76-5.52,3.47-8.46.78-3.26,1.14-6.77,1.38-10.1.51-6.95-1.32-13.8-.21-20.78.03-.18.09-.32.13-.49,0-.73,0-1.47.04-2.21-.13-.37-.19-.79-.16-1.26.05-.69.12-1.38.2-2.07-2.91.69-5.68,1.6-7.9,2.78-1.92,1.02-3.32,2.28-5,3.55-.3.22-.6,1.05-1.15.31,3.81-3.83,8.66-6.3,14.18-7.73,0,0,0,0,0,0h0c.24-2.03.53-4.06.72-6.09l-2.81-.09-11.83,2.49c3.77-2.26,9.04-3.51,14.73-3.57,0-.12.02-.24.03-.36.09-1.4.17-2.85.35-4.27-14.36-4.78-28.31-7.49-36.99-.1-.66-.65.2-.83.47-1.1,7.51-7.6,22.84-4.59,36.55.05h0c0-6.18.28-12.26-.03-18.41-.07-.09-.13-.17-.2-.26-3.26-4-7.15-7.66-9.43-12.36-4.08-8.43-4.7-19.63.9-27.53.91-1.28,2.07-1.79,3.24-1.8.52-.32,1.05-.62,1.58-.89.51-.26,1.05-.48,1.59-.66,1.2-.4,2.47-.73,3.74-.83,1.38-.33,2.76-.6,4.08-.81,4.12-.64,8.29-.84,12.45-1.17,5.51-.45,12.28-1.86,16.6-5.69,1.14-1.51,2.34-3.21,3.5-4.96.22-.48.5-.89.81-1.22,2.5-3.84,4.65-7.61,5.1-9.42,0-.46-.02-.88-.09-1.28-1.89-3.96-14.67-4.92-19.05-6.28-3.43-1.06-12.66-4.23-14.96-6.4-1.47-1.39-2.91-3.7-4.35-6.16-.31-.45-.59-.93-.83-1.42-1.58-2.72-3.18-5.43-4.86-7.12-4.01-4.03-14.14-6.33-16.84-10.14-4.39-6.19-1.06-21.15-5.7-26.9-2.37-2.94-5.45,5.16-7.29,5.61l-5.07-13.46c-2.26,0-9.53,14.37-10.88,17.2-6.87,14.35-5.92,20.49-9.1,34.73-3.26,14.57-15.67,28.74-21.09,44.11-6.01,17.05-11.02,50-19.7,63.48-5.5,8.54-10.1,16.92-14.26,25.24,7.13,12.52,16.15,23.81,26.74,33.43Z"/>
    <path class="cls-1" d="M335.81,230.84c0,.3,0,.6,0,.9-.01.08-.02.16-.03.24,4.48,1.49,9,3.18,13.41,4.83.02-.15.04-.3.06-.45-2.83-1.12-7.71-3.49-9.7-4.22-1.23-.45-2.47-.89-3.74-1.31h0Z"/>
    <path class="cls-1" d="M334.59,243.88c-.04.36-.08.73-.12,1.09,3.12-.74,6.41-1.22,9.41-1.49,1.42-.13,4,.07,5.96.1-.04-.34-.08-.69-.13-1.02-.01-.09-.03-.19-.04-.28-.02.02-.04.03-.06.05-5.32-.1-10.39.36-15.01,1.56,0,0,0,0,0,0h0Z"/>
    <path class="cls-1" d="M347.47,238.22c-3.99-1.15-8.13-1.66-12.07-1.61-.03.39-.06.78-.1,1.17l4.53.14,9.4,1.69c-.04-.29-.07-.57-.09-.85-.76-.27-1.47-.48-1.68-.54Z"/>
    <path class="cls-1" d="M357.98,239.77c4.37,0,5.1-6.84.67-6.84s-5.1,6.84-.67,6.84Z"/>
    <path class="cls-1" d="M366.05,233.24c4.37,0,5.1-6.84.67-6.84s-5.1,6.84-.67,6.84Z"/>
    <path class="cls-1" d="M367.97,239.66c3.07,0,3.58-4.8.47-4.8s-3.58,4.8-.47,4.8Z"/>
  </g>
</svg>